<svg width="32" height="32" viewBox="0 0 32 32" fill="none" xmlns="http://www.w3.org/2000/svg">
<path d="M12.6937 24.3306V11.6368C12.6937 10.4732 11.7417 9.5212 10.5781 9.5212H2.11562C0.952031 9.5212 0 10.4732 0 11.6368V24.3306C0 25.4942 0.952031 26.4462 2.11562 26.4462H10.5781C11.7417 26.4462 12.6937 25.4942 12.6937 24.3306ZM4.45339 22.7439H3.98795C3.40616 22.7439 2.93014 22.2678 2.93014 21.686C2.93014 21.1042 3.40616 20.6282 3.98795 20.6282H4.45339C5.03519 20.6282 5.5112 21.1042 5.5112 21.686C5.5112 22.2678 5.03519 22.7439 4.45339 22.7439ZM4.45339 19.5704H3.98795C3.40616 19.5704 2.93014 19.0944 2.93014 18.5126C2.93014 17.9308 3.40616 17.4548 3.98795 17.4548H4.45339C5.03519 17.4548 5.5112 17.9308 5.5112 18.5126C5.5112 19.0944 5.03519 19.5704 4.45339 19.5704ZM8.2192 22.7439H7.75377C7.17197 22.7439 6.69595 22.2678 6.69595 21.686C6.69595 21.1042 7.17197 20.6282 7.75377 20.6282H8.2192C8.801 20.6282 9.27702 21.1042 9.27702 21.686C9.27702 22.2678 8.801 22.7439 8.2192 22.7439ZM8.2192 19.5704H7.75377C7.17197 19.5704 6.69595 19.0944 6.69595 18.5126C6.69595 17.9308 7.17197 17.4548 7.75377 17.4548H8.2192C8.801 17.4548 9.27702 17.9308 9.27702 18.5126C9.27702 19.0944 8.801 19.5704 8.2192 19.5704ZM8.2192 15.3392H3.98795C3.40616 15.3392 2.93014 14.8632 2.93014 14.2814C2.93014 13.6996 3.40616 13.2235 3.98795 13.2235H8.2192C8.801 13.2235 9.27702 13.6996 9.27702 14.2814C9.27702 14.8632 8.801 15.3392 8.2192 15.3392ZM24.8586 7.40558H31.1103L24.3297 0.625V6.87667C24.3297 7.17286 24.5624 7.40558 24.8586 7.40558Z" fill="#B7BE79"/>
<path d="M24.8584 9.52031C24.157 9.52031 23.4844 9.24169 22.9884 8.74575C22.4925 8.2498 22.2139 7.57715 22.2139 6.87578V0H8.99121C8.28984 0 7.61719 0.278619 7.12124 0.774565C6.6253 1.27051 6.34668 1.94316 6.34668 2.64453V7.40469H10.8212C13.159 7.40469 15.0525 9.29817 15.0525 11.6359V24.3297C15.0525 26.6675 13.159 28.5609 10.8212 28.5609H6.34668V29.0898C6.34668 29.7912 6.6253 30.4639 7.12124 30.9598C7.61719 31.4558 8.28984 31.7344 8.99121 31.7344H29.0896C29.791 31.7344 30.4637 31.4558 30.9596 30.9598C31.4556 30.4639 31.7342 29.7912 31.7342 29.0898V9.52031H24.8584ZM11.6357 4.23125C11.0539 4.23125 10.5779 3.75523 10.5779 3.17344C10.5779 2.59164 11.0539 2.11562 11.6357 2.11562H19.0404C19.6222 2.11562 20.0982 2.59164 20.0982 3.17344C20.0982 3.75523 19.6222 4.23125 19.0404 4.23125H11.6357ZM14.8092 7.40469C14.8092 6.82289 15.2852 6.34687 15.867 6.34687H19.0404C19.6222 6.34687 20.0982 6.82289 20.0982 7.40469C20.0982 7.98648 19.6222 8.4625 19.0404 8.4625H15.867C15.2852 8.4625 14.8092 7.98648 14.8092 7.40469ZM27.5029 27.5031H16.9248C16.343 27.5031 15.867 27.0271 15.867 26.4453C15.867 25.8635 16.343 25.3875 16.9248 25.3875H17.4537V21.1562C17.4537 20.5745 17.9297 20.0984 18.5115 20.0984C19.0933 20.0984 19.5693 20.5745 19.5693 21.1562V25.3875H21.1561V16.925C21.1561 16.3432 21.6321 15.8672 22.2139 15.8672C22.7957 15.8672 23.2717 16.3432 23.2717 16.925V25.3875H24.8584V12.6937C24.8584 12.112 25.3344 11.6359 25.9162 11.6359C26.498 11.6359 26.974 12.112 26.974 12.6937V25.3875H27.5029C28.0847 25.3875 28.5607 25.8635 28.5607 26.4453C28.5607 27.0271 28.0847 27.5031 27.5029 27.5031Z" fill="#B7BE79"/>
</svg>
