<svg width="24" height="24" viewBox="0 0 24 24" fill="none" xmlns="http://www.w3.org/2000/svg">
<path d="M22 21.25H21V15C21 10.03 16.97 6 12 6C7.03 6 3 10.03 3 15V21.25H2C1.59 21.25 1.25 21.59 1.25 22C1.25 22.41 1.59 22.75 2 22.75H22C22.41 22.75 22.75 22.41 22.75 22C22.75 21.59 22.41 21.25 22 21.25Z" fill="#292D32"/>
<path d="M12 3.75C11.59 3.75 11.25 3.41 11.25 3V2C11.25 1.59 11.59 1.25 12 1.25C12.41 1.25 12.75 1.59 12.75 2V3C12.75 3.41 12.41 3.75 12 3.75Z" fill="#292D32"/>
<path d="M5 5.74994C4.81 5.74994 4.62 5.67994 4.47 5.52994L3.47 4.52994C3.18 4.23994 3.18 3.75994 3.47 3.46994C3.76 3.17994 4.24 3.17994 4.53 3.46994L5.53 4.46994C5.82 4.75994 5.82 5.23994 5.53 5.52994C5.38 5.67994 5.19 5.74994 5 5.74994Z" fill="#292D32"/>
<path d="M19 5.74994C18.81 5.74994 18.62 5.67994 18.47 5.52994C18.18 5.23994 18.18 4.75994 18.47 4.46994L19.47 3.46994C19.76 3.17994 20.24 3.17994 20.53 3.46994C20.82 3.75994 20.82 4.23994 20.53 4.52994L19.53 5.52994C19.38 5.67994 19.19 5.74994 19 5.74994Z" fill="#292D32"/>
</svg>
