<svg width="27" height="27" viewBox="0 0 27 27" fill="none" xmlns="http://www.w3.org/2000/svg">
<g clip-path="url(#clip0_40_36850)">
<path d="M0.732533 16.2964H3.69531C4.10434 16.2964 4.43614 16.6279 4.43614 17.037V24.4445C4.43614 24.8535 4.10441 25.1853 3.69531 25.1853H0.732533C0.323505 25.1853 -0.00830078 24.8536 -0.00830078 24.4445V17.037C-0.00830078 16.6279 0.323435 16.2964 0.732533 16.2964ZM8.13976 10.3703H11.1028C11.5118 10.3703 11.8436 10.702 11.8436 11.1111V24.4445C11.8436 24.8535 11.5119 25.1853 11.1028 25.1853H8.13976C7.73073 25.1853 7.3992 24.8536 7.3992 24.4445V11.1111C7.3992 10.7021 7.73066 10.3703 8.13976 10.3703ZM15.5473 13.3334H18.5103C18.9193 13.3334 19.2509 13.6651 19.2509 14.0742V24.4445C19.2509 24.8535 18.9194 25.1853 18.5103 25.1853H15.5473C15.1382 25.1853 14.8064 24.8536 14.8064 24.4445V14.0742C14.8064 13.6652 15.1382 13.3334 15.5473 13.3334ZM22.9548 8.88892H25.9175C26.3266 8.88892 26.6584 9.22065 26.6584 9.62975V24.4445C26.6584 24.8535 26.3266 25.1853 25.9175 25.1853H22.9548C22.5457 25.1853 22.2139 24.8536 22.2139 24.4445V9.62975C22.2139 9.22072 22.5457 8.88892 22.9548 8.88892Z" fill="#FFB141"/>
<path d="M24.4361 0C23.2095 0.00138889 22.2153 0.995556 22.2139 2.22222C22.2169 2.46417 22.2598 2.70403 22.3409 2.93188L18.6327 5.13611C18.3928 4.88166 18.0957 4.68798 17.7661 4.57108C17.4365 4.45418 17.0838 4.41741 16.7372 4.46383C16.3905 4.51024 16.0599 4.6385 15.7727 4.838C15.4855 5.0375 15.2498 5.30251 15.0853 5.61111L11.8146 3.99118C11.8306 3.89597 11.8401 3.79993 11.8436 3.70361C11.8445 3.26379 11.7148 2.83361 11.471 2.46754C11.2272 2.10148 10.8802 1.81599 10.4741 1.64723C10.0679 1.47847 9.62082 1.43403 9.18939 1.51954C8.75796 1.60505 8.36161 1.81666 8.05052 2.12757C7.73935 2.43841 7.52746 2.83463 7.44169 3.26601C7.35592 3.69739 7.40013 4.14453 7.56871 4.55076L3.32614 7.71702C2.98963 7.51652 2.60563 7.40965 2.21392 7.4075C0.986699 7.4075 -0.00830078 8.40222 -0.00830078 9.62972C-0.00830078 10.8569 0.986699 11.8519 2.21392 11.8519C3.44114 11.8519 4.43614 10.8569 4.43614 9.62972C4.43425 9.36243 4.38378 9.09771 4.28719 8.84847L8.57219 5.65056C9.41038 6.11792 10.4559 5.9809 11.1451 5.31306L14.8645 7.15521C15.1124 8.25958 16.1516 9.00063 17.2766 8.87535C18.4016 8.75 19.2523 7.79868 19.2509 6.66667C19.2509 6.61021 19.2384 6.55708 19.2343 6.50174L23.2675 4.10403C23.6173 4.32514 24.0223 4.44313 24.4361 4.44445C25.6634 4.44445 26.6584 3.44945 26.6584 2.22222C26.6584 0.995 25.6634 0 24.4361 0Z" fill="#FFB141"/>
</g>
<defs>
<clipPath id="clip0_40_36850">
<rect width="26.6667" height="26.6667" fill="white" transform="translate(-0.00830078)"/>
</clipPath>
</defs>
</svg>
