<svg width="24" height="24" viewBox="0 0 24 24" fill="none" xmlns="http://www.w3.org/2000/svg">
<path d="M20.1201 3.88L3.39007 20.61C3.34007 20.41 3.32007 20.19 3.32007 19.95V5.86C3.32007 3.74 5.05007 2 7.18007 2H16.8201C18.2201 2 19.4501 2.75 20.1201 3.88Z" fill="#292D32"/>
<path d="M21.7699 2.22988C21.4699 1.92988 20.9799 1.92988 20.6799 2.22988L2.22988 20.6899C1.92988 20.9899 1.92988 21.4799 2.22988 21.7799C2.37988 21.9199 2.56988 21.9999 2.76988 21.9999C2.96988 21.9999 3.15988 21.9199 3.30988 21.7699L21.7699 3.30988C22.0799 3.00988 22.0799 2.52988 21.7699 2.22988Z" fill="#292D32"/>
<path d="M19.2899 7.71005L11.8999 15.1001C11.4399 15.5601 11.5299 16.3301 12.0899 16.6601L19.4799 21.0901C20.1499 21.4901 20.9899 21.0101 20.9899 20.2301V8.41005C20.9999 7.52005 19.9199 7.08005 19.2899 7.71005Z" fill="#292D32"/>
</svg>
