<svg width="24" height="24" viewBox="0 0 24 24" fill="none" xmlns="http://www.w3.org/2000/svg">
<path d="M21.77 2.22988C21.47 1.92988 20.98 1.92988 20.68 2.22988L2.23 20.6899C1.93 20.9899 1.93 21.4799 2.23 21.7799C2.38 21.9199 2.57 21.9999 2.77 21.9999C2.97 21.9999 3.16 21.9199 3.31 21.7699L21.77 3.30988C22.08 3.00988 22.08 2.52988 21.77 2.22988Z" fill="#292D32"/>
<path d="M16.55 5.11L15.83 3.66C15.37 2.75 14.17 2 13.15 2H10.86C9.83005 2 8.63005 2.75 8.17005 3.66L7.45005 5.11C7.17005 5.65 6.61005 6 6.00005 6C3.83005 6 2.11005 7.83 2.25005 9.99L2.77005 18.25C2.82005 19.1 3.03005 19.89 3.48005 20.52L18 6C17.39 6 16.83 5.65 16.55 5.11ZM9.50005 10.75H6.50005C6.09005 10.75 5.75005 10.41 5.75005 10C5.75005 9.59 6.09005 9.25 6.50005 9.25H9.50005C9.91005 9.25 10.25 9.59 10.25 10C10.25 10.41 9.91005 10.75 9.50005 10.75Z" fill="#292D32"/>
<path d="M21.75 9.99006L21.23 18.2501C21.1 20.3101 20 22.0001 17.24 22.0001H7.41002C6.52002 22.0001 6.07002 20.9201 6.70002 20.2901L9.17002 17.8201C9.48002 17.5101 9.96002 17.4701 10.35 17.6901C11.04 18.0801 11.87 18.2301 12.75 18.0401C14.02 17.7701 15.05 16.7301 15.3 15.4501C15.47 14.5901 15.32 13.7801 14.94 13.1101C14.72 12.7201 14.75 12.2301 15.07 11.9201L19.57 7.42006C19.98 7.01006 20.67 7.06006 21.02 7.53006C21.54 8.21006 21.81 9.07006 21.75 9.99006Z" fill="#292D32"/>
</svg>
