<svg width="24" height="24" viewBox="0 0 24 24" fill="none" xmlns="http://www.w3.org/2000/svg">
<path d="M19.27 3.6499L14.17 8.7499H3.2C2.54 8.7499 2 8.2099 2 7.5499V7.5399C2 5.2499 3.85 3.3999 6.14 3.3999H17.85C18.35 3.3999 18.83 3.4899 19.27 3.6499Z" fill="#292D32"/>
<path d="M12.67 10.25L7.17 15.75H6C5.59 15.75 5.25 16.09 5.25 16.5C5.25 16.81 5.45 17.09 5.73 17.19L3.38 19.54C2.53 18.79 2 17.69 2 16.46V11.45C2 10.79 2.54 10.25 3.2 10.25H12.67V10.25Z" fill="#292D32"/>
<path d="M22 11V16.46C22 18.75 20.15 20.6 17.86 20.6H8.81004C7.92004 20.6 7.47004 19.52 8.10004 18.89L9.45004 17.54C9.64004 17.35 9.89004 17.25 10.16 17.25H14.5C14.91 17.25 15.25 16.91 15.25 16.5C15.25 16.09 14.91 15.75 14.5 15.75H13.66C12.77 15.75 12.32 14.67 12.95 14.04L16.41 10.58C16.79 10.21 17.3 10 17.83 10H21C21.55 10 22 10.45 22 11Z" fill="#292D32"/>
<path d="M21.77 2.22988C21.47 1.92988 20.98 1.92988 20.68 2.22988L2.23 20.6899C1.93 20.9899 1.93 21.4799 2.23 21.7799C2.38 21.9199 2.57 21.9999 2.77 21.9999C2.97 21.9999 3.16 21.9199 3.31 21.7699L21.77 3.30988C22.08 3.00988 22.08 2.52988 21.77 2.22988Z" fill="#292D32"/>
<path d="M21.7701 3.31006L20.6101 4.47006L16.3301 8.75006L3.31006 21.7701C3.16006 21.9201 2.97006 22.0001 2.77006 22.0001C2.57006 22.0001 2.38006 21.9201 2.23006 21.7701C1.92006 21.4701 1.92006 20.9901 2.23006 20.6901L3.38006 19.5401L5.73006 17.1901L19.2701 3.65006L20.6901 2.23006C20.9901 1.92006 21.4701 1.92006 21.7701 2.23006C22.0801 2.53006 22.0801 3.01006 21.7701 3.31006Z" fill="#292D32"/>
<path d="M22.0001 7.41002C22.0001 6.52002 20.9201 6.07002 20.2901 6.70002L20.0001 7.00002L19.7101 7.29002C19.0801 7.92002 19.5201 9.00002 20.4101 9.00002H21.0001C21.5501 9.00002 22.0001 8.55002 22.0001 8.00002V7.41002Z" fill="#292D32"/>
</svg>
