<svg width="25" height="25" viewBox="0 0 25 25" fill="none" xmlns="http://www.w3.org/2000/svg">
<path d="M20.1967 9.37621L18.5524 10.0405C18.3425 10.1259 18.118 10.1698 17.8915 10.1696C17.65 10.1687 17.4112 10.1183 17.19 10.0215C16.9687 9.92467 16.7697 9.78353 16.6051 9.60678C16.4405 9.43003 16.314 9.22142 16.2332 8.99384C16.1524 8.76625 16.1191 8.52452 16.1354 8.28357L16.2596 6.51502L15.1186 5.15818C14.8739 4.86191 14.7341 4.49295 14.7211 4.10889H3.90888C1.9503 4.10889 0.350098 5.70909 0.350098 7.676V17.5939C0.350098 19.5608 1.9503 21.1527 3.90888 21.1527H6.61755L6.55921 22.8112C6.5524 23.0464 6.59287 23.2805 6.6782 23.4997C6.76354 23.7189 6.89201 23.9188 7.056 24.0874C7.21999 24.2561 7.41616 24.3901 7.6329 24.4815C7.84963 24.573 8.08252 24.62 8.31776 24.6198C8.68447 24.6198 9.05118 24.4948 9.35956 24.2614L13.4934 21.1527H18.2607C20.2192 21.1527 21.8194 19.5608 21.8194 17.5939V10.0321L20.1967 9.37621ZM11.499 15.2769H7.12428C6.92534 15.2769 6.73455 15.1979 6.59388 15.0573C6.45321 14.9166 6.37418 14.7258 6.37418 14.5269C6.37418 14.3279 6.45321 14.1371 6.59388 13.9965C6.73455 13.8558 6.92534 13.7768 7.12428 13.7768H11.499C11.6979 13.7768 11.8887 13.8558 12.0294 13.9965C12.1701 14.1371 12.2491 14.3279 12.2491 14.5269C12.2491 14.7258 12.1701 14.9166 12.0294 15.0573C11.8887 15.1979 11.6979 15.2769 11.499 15.2769ZM15.377 11.4881H7.12594C6.92701 11.4881 6.73622 11.4091 6.59555 11.2684C6.45488 11.1278 6.37585 10.937 6.37585 10.738C6.37585 10.5391 6.45488 10.3483 6.59555 10.2077C6.73622 10.067 6.92701 9.98795 7.12594 9.98795H15.377C15.5759 9.98795 15.7667 10.067 15.9074 10.2077C16.048 10.3483 16.1271 10.5391 16.1271 10.738C16.1271 10.937 16.048 11.1278 15.9074 11.2684C15.7667 11.4091 15.5759 11.4881 15.377 11.4881Z" fill="#41C293"/>
<path d="M20.6299 1.04529L21.8375 2.97803L24.0487 3.52893C24.4154 3.62061 24.5595 4.064 24.317 4.35404L22.8518 6.09925L23.011 8.37204C23.017 8.45857 23.0009 8.5452 22.9643 8.6238C22.9276 8.70241 22.8715 8.7704 22.8014 8.82139C22.7312 8.87239 22.6493 8.90472 22.5632 8.91534C22.4771 8.92595 22.3897 8.91452 22.3093 8.8821L20.1965 8.02783L18.0837 8.8821C18.0033 8.91452 17.9159 8.92595 17.8298 8.91534C17.7438 8.90472 17.6618 8.87239 17.5916 8.82139C17.5215 8.7704 17.4654 8.70241 17.4287 8.6238C17.3921 8.5452 17.376 8.45857 17.382 8.37204L17.5412 6.09925L16.076 4.35404C16.0203 4.28753 15.9824 4.20796 15.9659 4.12279C15.9494 4.03762 15.9548 3.94965 15.9816 3.86715C16.0085 3.78465 16.0558 3.71033 16.1193 3.65117C16.1827 3.592 16.2602 3.54994 16.3444 3.52893L18.5555 2.97803L19.7631 1.04529C19.809 0.971745 19.8729 0.911093 19.9487 0.869044C20.0245 0.826995 20.1098 0.804932 20.1965 0.804932C20.2832 0.804932 20.3685 0.826995 20.4443 0.869044C20.5201 0.911093 20.584 0.971745 20.6299 1.04529Z" fill="#41C293"/>
</svg>
