<svg width="24" height="30" viewBox="0 0 24 30" fill="none" xmlns="http://www.w3.org/2000/svg">
<path d="M16.19 2.5H7.81C4.17 2.5 2 5.2125 2 9.7625V20.225C2 24.7875 4.17 27.5 7.81 27.5H16.18C19.82 27.5 21.99 24.7875 21.99 20.2375V9.7625C22 5.2125 19.83 2.5 16.19 2.5ZM9.94 16.5875C9.26 17.8625 8.32 18.9 7.22 19.5875C7.12 19.65 7 19.6875 6.89 19.6875C6.61 19.6875 6.35 19.5 6.22 19.175C6.03 18.7125 6.18 18.15 6.56 17.9125C7.43 17.375 8.17 16.55 8.7 15.55C8.88 15.2125 8.88 14.7875 8.7 14.45C8.16 13.45 7.42 12.625 6.56 12.0875C6.18 11.8625 6.03 11.3 6.22 10.825C6.4 10.3625 6.85 10.175 7.22 10.4125C8.32 11.1 9.26 12.1375 9.94 13.4125C10.46 14.375 10.46 15.625 9.94 16.5875ZM17 19.6875H13C12.59 19.6875 12.25 19.2625 12.25 18.75C12.25 18.2375 12.59 17.8125 13 17.8125H17C17.41 17.8125 17.75 18.2375 17.75 18.75C17.75 19.2625 17.41 19.6875 17 19.6875Z" fill="#292D32"/>
</svg>
