<svg width="24" height="30" viewBox="0 0 24 30" fill="none" xmlns="http://www.w3.org/2000/svg">
<path d="M21 12.5H3C2.45 12.5 2 13.0625 2 13.75V20.2375C2 20.4875 2.01 20.7375 2.03 20.9875C2.23 24.8375 4.13 27.2125 7.21 27.4625C7.41 27.4875 7.61 27.5 7.81 27.5H16.19C16.39 27.5 16.59 27.4875 16.79 27.4625C19.87 27.2125 21.77 24.8375 21.97 20.9875C21.99 20.7375 22 20.4875 22 20.2375V13.75C22 13.0625 21.55 12.5 21 12.5ZM8 20.1875C8.34 20.8125 8.8 21.325 9.33 21.6625C9.71 21.8875 9.86 22.45 9.67 22.925C9.54 23.25 9.27 23.4375 9 23.4375C8.89 23.4375 8.77 23.4 8.67 23.3375C7.89 22.8625 7.23 22.125 6.76 21.2375C6.36 20.4875 6.36 19.5125 6.76 18.7625C7.23 17.875 7.89 17.1375 8.67 16.6625C9.04 16.425 9.49 16.6125 9.67 17.075C9.86 17.55 9.71 18.1125 9.33 18.3375C8.8 18.675 8.34 19.1875 8 19.8125C7.94 19.925 7.94 20.075 8 20.1875ZM17.45 21.2375C16.97 22.125 16.31 22.8625 15.54 23.3375C15.43 23.4 15.32 23.4375 15.21 23.4375C14.93 23.4375 14.67 23.25 14.54 22.925C14.35 22.45 14.5 21.8875 14.87 21.6625C15.41 21.325 15.87 20.8125 16.2 20.1875C16.27 20.075 16.27 19.925 16.2 19.8125C15.87 19.1875 15.41 18.675 14.87 18.3375C14.5 18.1125 14.35 17.55 14.54 17.075C14.72 16.6125 15.17 16.425 15.54 16.6625C16.31 17.1375 16.97 17.875 17.45 18.7625C17.85 19.5125 17.85 20.4875 17.45 21.2375Z" fill="#292D32"/>
<path d="M22 9.7625V10C22 10.6875 21.55 11.25 21 11.25L3 11.2625C2.45 11.2625 2 10.7 2 10.0125V9.7625C2 9.5125 2.01 9.2625 2.03 9.0125C2.23 5.1625 4.13 2.7875 7.21 2.5375C7.41 2.5125 7.61 2.5 7.81 2.5H16.19C16.39 2.5 16.59 2.5125 16.79 2.5375C19.87 2.7875 21.77 5.1625 21.97 9.0125C21.99 9.2625 22 9.5125 22 9.7625Z" fill="#292D32"/>
</svg>
