<svg width="24" height="30" viewBox="0 0 24 30" fill="none" xmlns="http://www.w3.org/2000/svg">
<path d="M12 2.5C6.48 2.5 2 8.1 2 15C2 21.9 6.48 27.5 12 27.5C17.52 27.5 22 21.9 22 15C22 8.1 17.52 2.5 12 2.5ZM8.53 16.8375C8.82 17.2 8.82 17.8 8.53 18.1625C8.38 18.35 8.19 18.4375 8 18.4375C7.81 18.4375 7.62 18.35 7.47 18.1625L5.47 15.6625C5.18 15.3 5.18 14.7 5.47 14.3375L7.47 11.8375C7.76 11.475 8.24 11.475 8.53 11.8375C8.82 12.2 8.82 12.8 8.53 13.1625L7.06 15L8.53 16.8375ZM13.69 12.45L11.69 18.2875C11.57 18.6375 11.29 18.85 11 18.85C10.9 18.85 10.8 18.825 10.71 18.775C10.33 18.575 10.15 18.025 10.32 17.5375L12.32 11.7C12.48 11.225 12.92 11 13.3 11.2125C13.68 11.425 13.85 11.975 13.69 12.45ZM18.53 15.6625L16.53 18.1625C16.38 18.35 16.19 18.4375 16 18.4375C15.81 18.4375 15.62 18.35 15.47 18.1625C15.18 17.8 15.18 17.2 15.47 16.8375L16.94 15L15.47 13.1625C15.18 12.8 15.18 12.2 15.47 11.8375C15.76 11.475 16.24 11.475 16.53 11.8375L18.53 14.3375C18.82 14.7 18.82 15.3 18.53 15.6625Z" fill="#292D32"/>
</svg>
