<svg width="24" height="29" viewBox="0 0 24 29" fill="none" xmlns="http://www.w3.org/2000/svg">
<path d="M16.19 2.41675H7.81C4.17 2.41675 2 5.03883 2 9.43716V19.5509C2 23.9613 4.17 26.5834 7.81 26.5834H16.18C19.82 26.5834 21.99 23.9613 21.99 19.563V9.43716C22 5.03883 19.83 2.41675 16.19 2.41675ZM9.6 19.5751C9.6 20.7713 8.79 21.7501 7.8 21.7501C6.81 21.7501 6 20.7713 6 19.5751C6 18.3788 6.81 17.4001 7.8 17.4001H8.6C9.15 17.4001 9.6 17.9438 9.6 18.6084V19.5751ZM9.6 10.3917C9.6 11.0563 9.15 11.6001 8.6 11.6001H7.8C6.81 11.6001 6 10.6213 6 9.42508C6 8.22883 6.81 7.25008 7.8 7.25008C8.79 7.25008 9.6 8.22883 9.6 9.42508V10.3917ZM14.15 16.0105C14.15 16.6026 13.75 17.098 13.25 17.098H10.74C10.25 17.098 9.84 16.6147 9.84 16.0105V12.9776C9.84 12.3855 10.24 11.8901 10.74 11.8901H13.25C13.74 11.8901 14.15 12.3734 14.15 12.9776V16.0105ZM16.2 21.7501C15.21 21.7501 14.4 20.7713 14.4 19.5751V18.6084C14.4 17.9438 14.85 17.4001 15.4 17.4001H16.2C17.19 17.4001 18 18.3788 18 19.5751C18 20.7713 17.19 21.7501 16.2 21.7501ZM16.2 11.6001H15.4C14.85 11.6001 14.4 11.0563 14.4 10.3917V9.42508C14.4 8.22883 15.21 7.25008 16.2 7.25008C17.19 7.25008 18 8.22883 18 9.42508C18 10.6213 17.19 11.6001 16.2 11.6001Z" fill="#292D32"/>
</svg>
