<svg width="24" height="29" viewBox="0 0 24 29" fill="none" xmlns="http://www.w3.org/2000/svg">
<path d="M16 9.66675H8V19.3334H16V9.66675Z" fill="#292D32"/>
<path d="M2 22.9583C2 24.952 3.35 26.5833 5 26.5833C6.65 26.5833 8 24.952 8 22.9583V19.3333H5C3.35 19.3333 2 20.9645 2 22.9583Z" fill="#292D32"/>
<path d="M5 2.41675C3.35 2.41675 2 4.048 2 6.04175C2 8.0355 3.35 9.66675 5 9.66675H8V6.04175C8 4.048 6.65 2.41675 5 2.41675Z" fill="#292D32"/>
<path d="M22 6.04175C22 4.048 20.65 2.41675 19 2.41675C17.35 2.41675 16 4.048 16 6.04175V9.66675H19C20.65 9.66675 22 8.0355 22 6.04175Z" fill="#292D32"/>
<path d="M19 19.3333H16V22.9583C16 24.952 17.35 26.5833 19 26.5833C20.65 26.5833 22 24.952 22 22.9583C22 20.9645 20.65 19.3333 19 19.3333Z" fill="#292D32"/>
</svg>
