<svg width="24" height="24" viewBox="0 0 24 24" fill="none" xmlns="http://www.w3.org/2000/svg">
<path d="M12.0298 2.03003C10.0798 2.03003 8.25978 2.59003 6.72978 3.55003L13.5898 10.42L13.5998 7.68003C13.5998 7.27003 13.9398 6.93003 14.3498 6.93003C14.7698 6.93003 15.0998 7.27003 15.0998 7.68003L15.0898 12.23C15.0898 12.54 14.8998 12.81 14.6198 12.92C14.5298 12.96 14.4298 12.98 14.3398 12.98C14.1398 12.98 13.9498 12.9 13.8098 12.76L5.61979 4.56003C5.57979 4.52003 5.54979 4.48003 5.51979 4.44003C3.37979 6.28003 2.02979 9.00003 2.02979 12.03C2.02979 17.55 6.50979 22.03 12.0298 22.03C13.9798 22.03 15.7998 21.47 17.3298 20.51L10.4698 13.64L10.4598 16.38C10.4598 16.79 10.1198 17.13 9.70979 17.13C9.28979 17.13 8.95979 16.79 8.95979 16.38L8.96979 11.83C8.96979 11.52 9.15979 11.25 9.43979 11.14C9.70979 11.02 10.0398 11.08 10.2498 11.3L18.4398 19.5C18.4798 19.54 18.5098 19.58 18.5398 19.62C20.6798 17.78 22.0298 15.06 22.0298 12.03C22.0298 6.51003 17.5498 2.03003 12.0298 2.03003Z" fill="#292D32"/>
</svg>
