<svg width="22" height="25" viewBox="0 0 22 25" fill="none" xmlns="http://www.w3.org/2000/svg">
<path d="M10.8218 12.0426C12.4762 12.0426 13.9088 11.4492 15.0794 10.2784C16.2499 9.10792 16.8433 7.6757 16.8433 6.02112C16.8433 4.36702 16.2499 2.93466 15.0792 1.76371C13.9084 0.593357 12.476 0 10.8218 0C9.16721 0 7.73494 0.593357 6.56443 1.76391C5.39393 2.93446 4.80033 4.36688 4.80033 6.02112C4.80033 7.6757 5.39388 9.10812 6.56463 10.2787C7.73538 11.449 9.16779 12.0426 10.8218 12.0426ZM21.3578 19.2237C21.324 18.7366 21.2557 18.2052 21.1552 17.6441C21.0537 17.0787 20.9231 16.5443 20.7667 16.0558C20.6052 15.5509 20.3854 15.0524 20.1138 14.5746C19.8319 14.0787 19.5008 13.6468 19.1292 13.2915C18.7407 12.9198 18.265 12.6209 17.7149 12.4028C17.1668 12.186 16.5593 12.0762 15.9095 12.0762C15.6542 12.0762 15.4075 12.1809 14.9308 12.4912C14.592 12.7118 14.2522 12.9309 13.9113 13.1484C13.5838 13.3571 13.1402 13.5526 12.5922 13.7296C12.0576 13.9026 11.5148 13.9904 10.979 13.9904C10.4432 13.9904 9.90055 13.9026 9.36535 13.7296C8.81799 13.5528 8.37434 13.3573 8.04719 13.1486C7.6678 12.9062 7.32454 12.685 7.02679 12.491C6.55071 12.1807 6.30369 12.0759 6.04852 12.0759C5.39847 12.0759 4.7912 12.186 4.2432 12.4031C3.6935 12.6207 3.21762 12.9196 2.82871 13.2917C2.45737 13.6472 2.12607 14.0788 1.84453 14.5746C1.57315 15.0523 1.35342 15.5507 1.19165 16.056C1.0354 16.5445 0.904788 17.0787 0.803324 17.6441C0.702787 18.2044 0.634526 18.736 0.600737 19.2243C0.567125 19.7157 0.550464 20.208 0.550786 20.7006C0.550786 22.0056 0.965628 23.062 1.78369 23.8412C2.59165 24.6101 3.66069 25.0001 4.96073 25.0001H16.9984C18.2984 25.0001 19.3671 24.6103 20.1752 23.8412C20.9935 23.0626 21.4083 22.006 21.4083 20.7004C21.4081 20.1966 21.3912 19.6998 21.3578 19.2237Z" fill="#4ED7F1"/>
</svg>
