<svg width="24" height="29" viewBox="0 0 24 29" fill="none" xmlns="http://www.w3.org/2000/svg">
<path d="M20 17.2188C21.2426 17.2188 22.25 16.0015 22.25 14.5C22.25 12.9985 21.2426 11.7812 20 11.7812C18.7574 11.7812 17.75 12.9985 17.75 14.5C17.75 16.0015 18.7574 17.2188 20 17.2188Z" fill="#292D32"/>
<path d="M20 7.552C21.2426 7.552 22.25 6.33478 22.25 4.83325C22.25 3.33173 21.2426 2.1145 20 2.1145C18.7574 2.1145 17.75 3.33173 17.75 4.83325C17.75 6.33478 18.7574 7.552 20 7.552Z" fill="#292D32"/>
<path d="M20 26.8855C21.2426 26.8855 22.25 25.6683 22.25 24.1667C22.25 22.6652 21.2426 21.448 20 21.448C18.7574 21.448 17.75 22.6652 17.75 24.1667C17.75 25.6683 18.7574 26.8855 20 26.8855Z" fill="#292D32"/>
<path d="M4 17.2188C5.24264 17.2188 6.25 16.0015 6.25 14.5C6.25 12.9985 5.24264 11.7812 4 11.7812C2.75736 11.7812 1.75 12.9985 1.75 14.5C1.75 16.0015 2.75736 17.2188 4 17.2188Z" fill="#292D32"/>
<path d="M19 15.4062C19.41 15.4062 19.75 14.9953 19.75 14.4999C19.75 14.0045 19.41 13.5937 19 13.5937H11.75V8.45825C11.75 6.54909 12.42 5.7395 14 5.7395H19C19.41 5.7395 19.75 5.32867 19.75 4.83325C19.75 4.33784 19.41 3.927 19 3.927H14C11.58 3.927 10.25 5.53409 10.25 8.45825V13.5937H5C4.59 13.5937 4.25 14.0045 4.25 14.4999C4.25 14.9953 4.59 15.4062 5 15.4062H10.25V20.5416C10.25 23.4658 11.58 25.0728 14 25.0728H19C19.41 25.0728 19.75 24.662 19.75 24.1666C19.75 23.6712 19.41 23.2603 19 23.2603H14C12.42 23.2603 11.75 22.4508 11.75 20.5416V15.4062H19Z" fill="#292D32"/>
</svg>
