<svg width="24" height="29" viewBox="0 0 24 29" fill="none" xmlns="http://www.w3.org/2000/svg">
<path d="M7 9.66675H4C2.9 9.66675 2 8.57925 2 7.25008V4.83341C2 3.50425 2.9 2.41675 4 2.41675H7C8.1 2.41675 9 3.50425 9 4.83341V7.25008C9 8.57925 8.1 9.66675 7 9.66675Z" fill="#292D32"/>
<path d="M20.8 8.45833H17.2C16.54 8.45833 16 7.80583 16 7.00833V5.075C16 4.2775 16.54 3.625 17.2 3.625H20.8C21.46 3.625 22 4.2775 22 5.075V7.00833C22 7.80583 21.46 8.45833 20.8 8.45833Z" fill="#292D32"/>
<path d="M20.8 17.5208H17.2C16.54 17.5208 16 16.8683 16 16.0708V14.1375C16 13.34 16.54 12.6875 17.2 12.6875H20.8C21.46 12.6875 22 13.34 22 14.1375V16.0708C22 16.8683 21.46 17.5208 20.8 17.5208Z" fill="#292D32"/>
<path opacity="0.96" d="M16 16.0105C16.41 16.0105 16.75 15.5997 16.75 15.1042C16.75 14.6088 16.41 14.198 16 14.198H13.25V6.948H16C16.41 6.948 16.75 6.53716 16.75 6.04175C16.75 5.54633 16.41 5.1355 16 5.1355H9C8.59 5.1355 8.25 5.54633 8.25 6.04175C8.25 6.53716 8.59 6.948 9 6.948H11.75V21.7501C11.75 23.5867 12.98 25.073 14.5 25.073H16C16.41 25.073 16.75 24.6622 16.75 24.1667C16.75 23.6713 16.41 23.2605 16 23.2605H14.5C13.81 23.2605 13.25 22.5838 13.25 21.7501V16.0105H16Z" fill="#292D32"/>
<path d="M20.8 26.5833H17.2C16.54 26.5833 16 25.9308 16 25.1333V23.2C16 22.4025 16.54 21.75 17.2 21.75H20.8C21.46 21.75 22 22.4025 22 23.2V25.1333C22 25.9308 21.46 26.5833 20.8 26.5833Z" fill="#292D32"/>
</svg>
