<svg width="24" height="24" viewBox="0 0 24 24" fill="none" xmlns="http://www.w3.org/2000/svg">
<path d="M17.0199 21.2899L13.5399 19.5499C12.5699 19.0699 11.4399 19.0699 10.4699 19.5499L6.98991 21.2899C3.99991 22.7799 0.849913 19.5699 2.40991 16.6199L3.22991 15.0799C3.33991 14.8699 3.51991 14.6999 3.73991 14.5999L16.3799 8.89993C16.8999 8.66993 17.5099 8.87993 17.7699 9.37993L21.5799 16.6199C23.1399 19.5699 19.9999 22.7799 17.0199 21.2899Z" fill="#292D32"/>
<path d="M15.6 7.69002L7.31996 11.42C6.38996 11.84 5.44996 10.84 5.92996 9.94002L8.96996 4.17002C10.26 1.72002 13.76 1.72002 15.05 4.17002L16.12 6.21002C16.4 6.76002 16.16 7.44002 15.6 7.69002Z" fill="#292D32"/>
</svg>
