<svg width="24" height="29" viewBox="0 0 24 29" fill="none" xmlns="http://www.w3.org/2000/svg">
<path d="M16 2.41675H8C4.5 2.41675 3 4.83341 3 8.45841V20.5417C3 24.1667 4.5 26.5834 8 26.5834H16C19.5 26.5834 21 24.1667 21 20.5417V8.45841C21 4.83341 19.5 2.41675 16 2.41675ZM10.53 19.9013C10.82 20.2517 10.82 20.8317 10.53 21.1822C10.38 21.3634 10.19 21.448 10 21.448C9.81 21.448 9.62 21.3634 9.47 21.1822L7.47 18.7655C7.18 18.4151 7.18 17.8351 7.47 17.4847L9.47 15.068C9.76 14.7176 10.24 14.7176 10.53 15.068C10.82 15.4184 10.82 15.9984 10.53 16.3488L9.06 18.1251L10.53 19.9013ZM16.53 18.7655L14.53 21.1822C14.38 21.3634 14.19 21.448 14 21.448C13.81 21.448 13.62 21.3634 13.47 21.1822C13.18 20.8317 13.18 20.2517 13.47 19.9013L14.94 18.1251L13.47 16.3488C13.18 15.9984 13.18 15.4184 13.47 15.068C13.76 14.7176 14.24 14.7176 14.53 15.068L16.53 17.4847C16.82 17.8351 16.82 18.4151 16.53 18.7655ZM18.5 11.1772H16.5C14.98 11.1772 13.75 9.69091 13.75 7.85425V5.43758C13.75 4.94216 14.09 4.53133 14.5 4.53133C14.91 4.53133 15.25 4.94216 15.25 5.43758V7.85425C15.25 8.688 15.81 9.36466 16.5 9.36466H18.5C18.91 9.36466 19.25 9.7755 19.25 10.2709C19.25 10.7663 18.91 11.1772 18.5 11.1772Z" fill="#292D32"/>
</svg>
