<svg width="24" height="30" viewBox="0 0 24 30" fill="none" xmlns="http://www.w3.org/2000/svg">
<path d="M16 2.5H8C4.5 2.5 3 5 3 8.75V14.3375C3 14.775 3.34 15.075 3.66 14.925C4.76 14.3875 6.01 14.2125 7.3 14.5375C9.9 15.1875 11.97 17.8625 12.4 21.125C12.66 23.1125 12.34 25 11.61 26.5625C11.41 26.975 11.65 27.5 12.04 27.5H16C19.5 27.5 21 25 21 21.25V8.75C21 5 19.5 2.5 16 2.5ZM18.5 11.5625H16.5C14.98 11.5625 13.75 10.025 13.75 8.125V5.625C13.75 5.1125 14.09 4.6875 14.5 4.6875C14.91 4.6875 15.25 5.1125 15.25 5.625V8.125C15.25 8.9875 15.81 9.6875 16.5 9.6875H18.5C18.91 9.6875 19.25 10.1125 19.25 10.625C19.25 11.1375 18.91 11.5625 18.5 11.5625Z" fill="#292D32"/>
<path d="M6 16.25C3.24 16.25 1 19.05 1 22.5C1 25.95 3.24 28.75 6 28.75C8.76 28.75 11 25.95 11 22.5C11 19.05 8.76 16.25 6 16.25ZM5.16 24.0875C5.41 24.4 5.41 24.9125 5.16 25.2375C5.03 25.4 4.87 25.475 4.7 25.475C4.53 25.475 4.37 25.4 4.24 25.2375L2.51 23.075C2.26 22.7625 2.26 22.25 2.51 21.925L4.24 19.7625C4.49 19.45 4.9 19.45 5.16 19.7625C5.41 20.075 5.41 20.5875 5.16 20.9125L3.89 22.5L5.16 24.0875ZM9.48 23.075L7.75 25.2375C7.62 25.4 7.46 25.475 7.29 25.475C7.12 25.475 6.96 25.4 6.83 25.2375C6.58 24.925 6.58 24.4125 6.83 24.0875L8.11 22.5L6.84 20.9125C6.59 20.6 6.59 20.0875 6.84 19.7625C7.09 19.45 7.5 19.45 7.76 19.7625L9.49 21.925C9.73 22.25 9.73 22.75 9.48 23.075Z" fill="#292D32"/>
</svg>
