<svg width="24" height="24" viewBox="0 0 24 24" fill="none" xmlns="http://www.w3.org/2000/svg">
<path d="M8.25827 21.2448C8.90525 20.5978 9.27691 19.7719 9.37327 18.9184C9.50404 17.7828 9.12549 16.6058 8.25827 15.7386C7.74207 15.2224 7.10886 14.8783 6.44124 14.72C5.16794 14.3965 3.75699 14.7337 2.75212 15.7386C2.05697 16.4338 1.67842 17.3216 1.63024 18.237C1.59582 18.6294 1.63024 19.0354 1.73348 19.4277C1.89178 20.0954 2.23592 20.7286 2.75212 21.2448C4.27319 22.7659 6.7372 22.7659 8.25827 21.2448ZM6.96433 17.7759C7.36352 17.7759 7.69389 18.1063 7.69389 18.5055C7.68701 18.9115 7.36352 19.235 6.95745 19.2419L6.23476 19.235L6.24164 19.9302C6.23476 20.3363 5.91128 20.6597 5.5052 20.6666C5.09912 20.6597 4.77563 20.3363 4.76875 19.9302L4.77563 19.235L4.05295 19.2419C3.64687 19.235 3.32338 18.9115 3.3165 18.5055C3.32338 18.3059 3.40597 18.1269 3.53674 17.9961C3.66752 17.8654 3.84647 17.7828 4.04606 17.7759L4.77563 17.7759L4.77563 17.0188C4.77563 16.8123 4.85822 16.6334 4.98899 16.5026C5.11977 16.3718 5.29871 16.2892 5.5052 16.2892C5.90439 16.2892 6.23476 16.6196 6.23476 17.0188L6.23476 17.7759L6.96433 17.7759Z" fill="#292D32"/>
<path d="M15.0942 3.84548V7.54425H13.6342V3.84548C13.6342 3.58267 13.4006 3.45613 13.2449 3.45613C13.1962 3.45613 13.1475 3.46587 13.0989 3.48533L5.38011 6.39568C4.86422 6.59035 4.53328 7.07703 4.53328 7.63185V8.284C3.64752 8.94589 3.07324 10.0068 3.07324 11.2041V7.63185C3.07324 6.47355 3.7838 5.44179 4.86422 5.03298L12.5927 2.1129C12.8068 2.03503 13.0307 1.99609 13.2449 1.99609C14.2182 1.99609 15.0942 2.78452 15.0942 3.84548Z" fill="#292D32"/>
<path d="M21.5685 14.1153V15.0887C21.5685 15.3515 21.364 15.5656 21.0915 15.5754H19.6704C19.1545 15.5754 18.6873 15.1958 18.6484 14.6896C18.6192 14.3879 18.736 14.1056 18.9306 13.9109C19.1059 13.726 19.3492 13.6287 19.612 13.6287H21.0818C21.364 13.6384 21.5685 13.8525 21.5685 14.1153Z" fill="#292D32"/>
<path d="M19.6009 12.6049H20.5937C21.1291 12.6049 21.5671 12.1669 21.5671 11.6316V11.2033C21.5671 9.18844 19.9221 7.54346 17.9073 7.54346H6.73308C5.90572 7.54346 5.1465 7.816 4.53328 8.28321C3.64752 8.9451 3.07324 10.0061 3.07324 11.2033V12.9359C3.07324 13.3057 3.46259 13.5394 3.813 13.4226C4.35808 13.2376 4.93236 13.1403 5.50664 13.1403C8.45592 13.1403 10.8601 15.5445 10.8601 18.4938C10.8601 19.1946 10.6752 19.9635 10.3832 20.6449C10.2274 20.9953 10.4708 21.4138 10.8504 21.4138H17.9073C19.9221 21.4138 21.5671 19.7689 21.5671 17.754V17.5691C21.5671 17.0337 21.1291 16.5957 20.5937 16.5957H19.7469C18.8125 16.5957 17.917 16.0214 17.6736 15.1162C17.479 14.3764 17.7126 13.6562 18.1993 13.1889C18.5594 12.8191 19.0558 12.6049 19.6009 12.6049ZM14.2669 12.4103H9.40008C9.00101 12.4103 8.67006 12.0793 8.67006 11.6802C8.67006 11.2812 9.00101 10.9502 9.40008 10.9502H14.2669C14.666 10.9502 14.9969 11.2812 14.9969 11.6802C14.9969 12.0793 14.666 12.4103 14.2669 12.4103Z" fill="#292D32"/>
</svg>
