<svg width="34" height="34" viewBox="0 0 34 34" fill="none" xmlns="http://www.w3.org/2000/svg">
<path d="M30.3552 1.91499C26.8883 0.688569 23.0901 0.789575 19.6933 2.19851C16.9858 3.32306 13.9732 3.47888 11.1641 2.63968C10.8523 2.54512 10.5225 2.52564 10.2016 2.58282C9.8808 2.64 9.57803 2.77222 9.31803 2.9687C9.05322 3.16695 8.83807 3.42399 8.68955 3.71957C8.54102 4.01515 8.46318 4.34119 8.46216 4.67198V15.1414C8.46216 16.0353 9.01758 16.8341 9.84489 17.1282C11.4434 17.6963 13.1139 17.9851 14.8098 17.9851C16.7656 17.9871 18.7022 17.5998 20.5068 16.8457C23.2145 15.7218 26.2268 15.566 29.036 16.4046C29.3478 16.4991 29.6776 16.5186 29.9985 16.4614C30.3193 16.4043 30.6221 16.272 30.8821 16.0756C31.4174 15.6756 31.7379 15.0398 31.7379 14.3723V3.9018C31.7379 3.00784 31.1825 2.20909 30.3552 1.91499ZM20.1006 12.6954C18.3507 12.6954 16.9268 11.2714 16.9268 9.5216C16.9268 7.77176 18.3507 6.34777 20.1006 6.34777C21.8504 6.34777 23.2744 7.77176 23.2744 9.5216C23.2744 11.2714 21.8504 12.6954 20.1006 12.6954ZM21.1585 9.5216C21.1585 9.80218 21.0471 10.0713 20.8487 10.2697C20.6503 10.4681 20.3812 10.5795 20.1006 10.5795C19.82 10.5795 19.5509 10.4681 19.3525 10.2697C19.1541 10.0713 19.0426 9.80218 19.0426 9.5216C19.0426 9.24101 19.1541 8.97192 19.3525 8.77352C19.5509 8.57511 19.82 8.46365 20.1006 8.46365C20.3812 8.46365 20.6503 8.57511 20.8487 8.77352C21.0471 8.97192 21.1585 9.24101 21.1585 9.5216ZM32.7959 22.6083C32.7959 23.278 32.5557 23.9255 32.1199 24.4333L29.2074 27.8304C26.8873 30.5387 23.6362 32.2229 20.0551 32.5742C18.5882 32.7188 17.1153 32.793 15.6414 32.7963C12.4474 32.7963 10.4521 32.406 9.26408 32.06C9.41959 31.6199 9.52116 31.1534 9.52116 30.6593V21.1378C9.52116 20.8289 9.48307 20.5284 9.42065 20.2386C10.0755 20.1349 10.7388 20.0799 11.4043 20.0799H16.9268C18.3465 19.9815 19.6869 20.6035 20.473 21.6054C21.0019 22.2804 20.4624 23.2738 19.6055 23.2738H14.8109C14.5303 23.2738 14.2612 23.3853 14.0628 23.5837C13.8644 23.7821 13.7529 24.0512 13.7529 24.3317C13.7529 24.6123 13.8644 24.8814 14.0628 25.0798C14.2612 25.2782 14.5303 25.3897 14.8109 25.3897H21.1585C21.3236 25.3897 21.4664 25.323 21.6145 25.2765C23.2712 24.7602 24.9089 24.1604 26.0642 22.84L27.7855 20.8733C28.5282 20.0249 29.6951 19.5953 30.7763 19.9159C31.3602 20.083 31.8735 20.4364 32.238 20.9223C32.6024 21.4082 32.798 21.9999 32.7948 22.6073L32.7959 22.6083ZM7.40527 21.1378V30.6593C7.40527 31.8262 6.4563 32.7752 5.28939 32.7752H3.1735C2.00659 32.7752 1.05762 31.8262 1.05762 30.6593V21.1378C1.05762 19.9709 2.00659 19.0219 3.1735 19.0219H5.28939C6.4563 19.0219 7.40527 19.9709 7.40527 21.1378Z" fill="#B7BE79"/>
</svg>
