<svg width="24" height="24" viewBox="0 0 24 24" fill="none" xmlns="http://www.w3.org/2000/svg">
<path d="M20.41 6.95994V8.78994C20.41 9.42994 20.11 10.0299 19.59 10.3999L8.59003 18.4599C7.88003 18.9799 6.91003 18.9799 6.21003 18.4499L4.77003 17.3699C4.12003 16.8799 3.59003 15.8199 3.59003 15.0099V6.95994C3.59003 5.83994 4.45003 4.59994 5.50003 4.20994L10.97 2.15994C11.54 1.94994 12.46 1.94994 13.03 2.15994L18.5 4.20994C19.55 4.59994 20.41 5.83994 20.41 6.95994Z" fill="#292D32"/>
<path d="M18.82 12.3399C19.48 11.8599 20.41 12.3299 20.41 13.1499V15.0299C20.41 15.8399 19.88 16.8899 19.23 17.3799L13.76 21.4699C13.28 21.8199 12.64 21.9999 12 21.9999C11.36 21.9999 10.72 21.8199 10.24 21.4599L9.40998 20.8399C8.86998 20.4399 8.86998 19.6299 9.41998 19.2299L18.82 12.3399Z" fill="#292D32"/>
</svg>
