<svg width="24" height="30" viewBox="0 0 24 30" fill="none" xmlns="http://www.w3.org/2000/svg">
<path d="M10.0801 14.7874H11.7301L11.9201 12.7124H10.2701L10.0801 14.7874Z" fill="#292D32"/>
<path d="M21.97 9.0125C21.77 5.1625 19.87 2.7875 16.79 2.5375C16.59 2.5125 16.39 2.5 16.19 2.5H7.81C7.61 2.5 7.41 2.5125 7.21 2.5375C4.13 2.7875 2.23 5.1625 2.03 9.0125C2.01 9.2625 2 9.5125 2 9.7625V20.2375C2 20.4875 2.01 20.7375 2.03 20.9875C2.23 24.8375 4.13 27.2125 7.21 27.4625C7.41 27.4875 7.61 27.5 7.81 27.5H13.5C14.05 27.5 14.5 26.9375 14.5 26.25V22.5375C14.5 20.1 16.08 18.125 18.03 18.125H21C21.55 18.125 22 17.5625 22 16.875V9.7625C22 9.5125 21.99 9.2625 21.97 9.0125ZM16 12.7125H13.43L13.24 14.7875H15.47C15.89 14.7875 16.22 15.2125 16.22 15.725C16.22 16.2375 15.89 16.6625 15.47 16.6625H13.08L12.8 19.775C12.76 20.25 12.43 20.6125 12.05 20.6125C12.03 20.6125 12 20.6125 11.97 20.6C11.56 20.55 11.26 20.0875 11.31 19.5625L11.57 16.6625H9.92L9.64 19.775C9.6 20.25 9.27 20.6125 8.9 20.6125C8.87 20.6125 8.84 20.6125 8.81 20.6C8.4 20.55 8.1 20.0875 8.15 19.5625L8.41 16.6625H6C5.59 16.6625 5.25 16.2375 5.25 15.725C5.25 15.2125 5.59 14.7875 6 14.7875H8.57L8.76 12.7125H6.53C6.11 12.7125 5.78 12.2875 5.78 11.775C5.78 11.2625 6.11 10.8375 6.53 10.8375H8.92L9.2 7.725C9.25 7.2125 9.62 6.8375 10.03 6.9C10.44 6.95 10.74 7.4125 10.69 7.9375L10.43 10.8375H12.08L12.36 7.725C12.41 7.2125 12.78 6.8375 13.19 6.9C13.6 6.95 13.9 7.4125 13.85 7.9375L13.59 10.8375H16C16.41 10.8375 16.75 11.2625 16.75 11.775C16.75 12.2875 16.41 12.7125 16 12.7125Z" fill="#292D32"/>
<path d="M20.97 28.75H18.03C16.76 28.75 16 27.8 16 26.2125V22.5375C16 20.95 16.76 20 18.03 20H20.97C22.24 20 23 20.95 23 22.5375V26.2125C23 27.8 22.24 28.75 20.97 28.75ZM21.19 24.6125C21.07 24.4625 20.91 24.3875 20.75 24.3875C20.59 24.3875 20.43 24.4625 20.31 24.6125L20.13 24.8375V22.0375C20.13 21.6 19.85 21.25 19.5 21.25C19.15 21.25 18.87 21.6 18.87 22.0375V24.8375L18.69 24.6125C18.45 24.3125 18.05 24.3125 17.81 24.6125C17.57 24.9125 17.57 25.4125 17.81 25.7125L19.06 27.275C19.11 27.3375 19.18 27.3875 19.25 27.425C19.27 27.4375 19.29 27.4375 19.31 27.45C19.36 27.475 19.41 27.4875 19.47 27.4875C19.49 27.4875 19.51 27.4875 19.53 27.4875C19.6 27.4875 19.66 27.475 19.73 27.4375C19.74 27.4375 19.74 27.4375 19.75 27.4375C19.82 27.4 19.88 27.35 19.93 27.2875C19.94 27.275 19.94 27.275 19.95 27.275L21.2 25.7125C21.44 25.4125 21.44 24.9125 21.19 24.6125Z" fill="#292D32"/>
</svg>
