<svg width="24" height="30" viewBox="0 0 24 30" fill="none" xmlns="http://www.w3.org/2000/svg">
<path d="M10.4199 16.7751H13.2599L13.5799 13.2251H10.7399L10.4199 16.7751Z" fill="#292D32"/>
<path d="M16.19 2.5H7.81C4.17 2.5 2 5.2125 2 9.7625V20.225C2 24.7875 4.17 27.5 7.81 27.5H16.18C19.82 27.5 21.99 24.7875 21.99 20.2375V9.7625C22 5.2125 19.83 2.5 16.19 2.5ZM18.82 13.225H15.05L14.73 16.7875H18.1C18.5 16.7875 18.83 17.2 18.83 17.7C18.83 18.2 18.5 18.6125 18.1 18.6125H14.57L14.16 23.1875C14.12 23.65 13.8 24 13.43 24C13.4 24 13.38 24 13.35 24C12.95 23.95 12.66 23.4875 12.7 22.9875L13.09 18.6125H10.25L9.84 23.1875C9.8 23.65 9.48 24 9.11 24C9.08 24 9.06 24 9.03 24C8.63 23.95 8.34 23.4875 8.38 22.9875L8.77 18.6125H5.18C4.78 18.6125 4.45 18.2 4.45 17.7C4.45 17.2 4.78 16.7875 5.18 16.7875H8.95L9.27 13.225H5.9C5.5 13.225 5.17 12.8125 5.17 12.3125C5.17 11.8125 5.5 11.4 5.9 11.4H9.43L9.84 6.825C9.88 6.325 10.25 5.9625 10.65 6.0125C11.05 6.0625 11.34 6.525 11.3 7.025L10.91 11.4H13.75L14.16 6.825C14.21 6.325 14.57 5.9625 14.97 6.0125C15.37 6.0625 15.66 6.525 15.62 7.025L15.23 11.4H18.84C19.24 11.4 19.57 11.8125 19.57 12.3125C19.57 12.8125 19.22 13.225 18.82 13.225Z" fill="#292D32"/>
</svg>
