<svg width="24" height="30" viewBox="0 0 24 30" fill="none" xmlns="http://www.w3.org/2000/svg">
<path d="M10.08 14.7874H11.73L11.92 12.7124H10.27L10.08 14.7874Z" fill="#292D32"/>
<path d="M21.97 9.0125C21.77 5.1625 19.87 2.7875 16.79 2.5375C16.59 2.5125 16.39 2.5 16.19 2.5H7.81C7.61 2.5 7.41 2.5125 7.21 2.5375C4.13 2.7875 2.23 5.1625 2.03 9.0125C2.01 9.2625 2 9.5125 2 9.7625V20.2375C2 20.4875 2.01 20.7375 2.03 20.9875C2.23 24.8375 4.13 27.2125 7.21 27.4625C7.41 27.4875 7.61 27.5 7.81 27.5H13.5C14.05 27.5 14.5 26.9375 14.5 26.25V22.5375C14.5 20.1 16.08 18.125 18.03 18.125H21C21.55 18.125 22 17.5625 22 16.875V9.7625C22 9.5125 21.99 9.2625 21.97 9.0125ZM16 12.7125H13.43L13.24 14.7875H15.47C15.89 14.7875 16.22 15.2125 16.22 15.725C16.22 16.2375 15.89 16.6625 15.47 16.6625H13.08L12.8 19.775C12.76 20.25 12.43 20.6125 12.05 20.6125C12.03 20.6125 12 20.6125 11.97 20.6C11.56 20.55 11.26 20.0875 11.31 19.5625L11.57 16.6625H9.92L9.64 19.775C9.6 20.25 9.27 20.6125 8.9 20.6125C8.87 20.6125 8.84 20.6125 8.81 20.6C8.4 20.55 8.1 20.0875 8.15 19.5625L8.41 16.6625H6C5.59 16.6625 5.25 16.2375 5.25 15.725C5.25 15.2125 5.59 14.7875 6 14.7875H8.57L8.76 12.7125H6.53C6.11 12.7125 5.78 12.2875 5.78 11.775C5.78 11.2625 6.11 10.8375 6.53 10.8375H8.92L9.2 7.725C9.25 7.2125 9.62 6.8375 10.03 6.9C10.44 6.95 10.74 7.4125 10.69 7.9375L10.43 10.8375H12.08L12.36 7.725C12.41 7.2125 12.78 6.8375 13.19 6.9C13.6 6.95 13.9 7.4125 13.85 7.9375L13.59 10.8375H16C16.41 10.8375 16.75 11.2625 16.75 11.775C16.75 12.2875 16.41 12.7125 16 12.7125Z" fill="#292D32"/>
<path d="M20.97 20H18.03C16.76 20 16 20.95 16 22.5375V26.2125C16 27.8 16.76 28.75 18.03 28.75H20.97C22.24 28.75 23 27.8 23 26.2125V22.5375C23 20.95 22.24 20 20.97 20ZM21.19 24.1375C21.07 24.2875 20.91 24.3625 20.75 24.3625C20.59 24.3625 20.43 24.2875 20.31 24.1375L20.13 23.9125V26.7125C20.13 27.15 19.85 27.5 19.5 27.5C19.15 27.5 18.87 27.15 18.87 26.7125V23.9125L18.69 24.1375C18.45 24.4375 18.05 24.4375 17.81 24.1375C17.57 23.8375 17.57 23.3375 17.81 23.0375L19.06 21.475C19.11 21.4125 19.18 21.3625 19.25 21.325C19.27 21.3125 19.29 21.3125 19.31 21.3C19.36 21.275 19.41 21.2625 19.47 21.2625C19.49 21.2625 19.51 21.2625 19.53 21.2625C19.6 21.2625 19.66 21.275 19.73 21.3125C19.74 21.3125 19.74 21.3125 19.75 21.3125C19.82 21.35 19.88 21.4 19.93 21.4625C19.94 21.475 19.94 21.475 19.95 21.475L21.2 23.0375C21.44 23.3375 21.44 23.8375 21.19 24.1375Z" fill="#292D32"/>
</svg>
