<svg width="24" height="29" viewBox="0 0 24 29" fill="none" xmlns="http://www.w3.org/2000/svg">
<path d="M16.19 2.41675H7.81C4.17 2.41675 2 5.03883 2 9.43716V19.5509C2 23.9613 4.17 26.5834 7.81 26.5834H16.18C19.82 26.5834 21.99 23.9613 21.99 19.563V9.43716C22 5.03883 19.83 2.41675 16.19 2.41675ZM9.85 19.8772C9.85 21.2426 8.93 22.3542 7.8 22.3542C6.67 22.3542 5.75 21.2426 5.75 19.8772C5.75 18.8259 6.29 17.9438 7.05 17.5813V12.3976C6.21 12.023 5.6 11.0563 5.6 9.90841C5.6 8.44633 6.59 7.25008 7.8 7.25008C9.01 7.25008 10 8.44633 10 9.90841C10 11.0563 9.39 12.023 8.55 12.3976V17.5813C9.31 17.9438 9.85 18.838 9.85 19.8772ZM16.75 22.3542C15.62 22.3542 14.7 21.2426 14.7 19.8772C14.7 18.8259 15.24 17.9438 16 17.5813V10.573C16 10.4038 15.89 10.2709 15.75 10.2709H14.62L14.83 10.4763C15.15 10.8026 15.19 11.3705 14.93 11.7572C14.78 11.9747 14.56 12.0834 14.35 12.0834C14.18 12.0834 14.01 12.0109 13.87 11.878L12.07 10.0655C11.9 9.88425 11.8 9.6305 11.8 9.36466C11.8 9.09883 11.9 8.84508 12.07 8.66383L13.87 6.85133C14.19 6.53716 14.66 6.5855 14.93 6.97216C15.2 7.35883 15.15 7.92675 14.83 8.253L14.62 8.45841H15.75C16.71 8.45841 17.5 9.413 17.5 10.573V17.5813C18.26 17.9438 18.8 18.838 18.8 19.8772C18.8 21.2426 17.88 22.3542 16.75 22.3542Z" fill="#292D32"/>
</svg>
