<svg width="24" height="30" viewBox="0 0 24 30" fill="none" xmlns="http://www.w3.org/2000/svg">
<path d="M5 10C6.65685 10 8 8.32107 8 6.25C8 4.17893 6.65685 2.5 5 2.5C3.34315 2.5 2 4.17893 2 6.25C2 8.32107 3.34315 10 5 10Z" fill="#292D32"/>
<path d="M19 18.75C20.6569 18.75 22 17.0711 22 15C22 12.9289 20.6569 11.25 19 11.25C17.3431 11.25 16 12.9289 16 15C16 17.0711 17.3431 18.75 19 18.75Z" fill="#292D32"/>
<path d="M5 27.5C6.65685 27.5 8 25.8211 8 23.75C8 21.6789 6.65685 20 5 20C3.34315 20 2 21.6789 2 23.75C2 25.8211 3.34315 27.5 5 27.5Z" fill="#292D32"/>
<path d="M5 20.9375C4.59 20.9375 4.25 20.5125 4.25 20V10C4.25 9.4875 4.59 9.0625 5 9.0625C5.41 9.0625 5.75 9.4875 5.75 10C5.75 12.7375 6.81 14.0625 9 14.0625H16C16.41 14.0625 16.75 14.4875 16.75 15C16.75 15.5125 16.41 15.9375 16 15.9375H9C7.64 15.9375 6.55 15.5 5.75 14.675V20C5.75 20.5125 5.41 20.9375 5 20.9375Z" fill="#292D32"/>
</svg>
