<svg width="24" height="29" viewBox="0 0 24 29" fill="none" xmlns="http://www.w3.org/2000/svg">
<path d="M18.75 26.5834C20.5449 26.5834 22 24.8252 22 22.6563C22 20.4875 20.5449 18.7292 18.75 18.7292C16.9551 18.7292 15.5 20.4875 15.5 22.6563C15.5 24.8252 16.9551 26.5834 18.75 26.5834Z" fill="#292D32"/>
<path d="M19 9.66675C20.6569 9.66675 22 8.04378 22 6.04175C22 4.03972 20.6569 2.41675 19 2.41675C17.3431 2.41675 16 4.03972 16 6.04175C16 8.04378 17.3431 9.66675 19 9.66675Z" fill="#292D32"/>
<path d="M5 9.66675C6.65685 9.66675 8 8.04378 8 6.04175C8 4.03972 6.65685 2.41675 5 2.41675C3.34315 2.41675 2 4.03972 2 6.04175C2 8.04378 3.34315 9.66675 5 9.66675Z" fill="#292D32"/>
<path d="M4.83 9.69092C5.8 13.0501 8.42 15.3097 11.37 15.3097C11.38 15.3097 11.39 15.3097 11.4 15.3097L14.93 15.2976C16.45 15.2734 17.81 16.518 18.22 18.3063V20.5417C18.22 21.0492 18.56 21.4601 18.99 21.4601C19.41 21.4601 19.75 21.0492 19.75 20.5417V6.96008C19.75 6.45258 19.41 6.04175 18.99 6.04175C18.57 6.04175 18.22 6.45258 18.22 6.96008V14.9592C17.34 14.0167 16.19 13.4367 14.94 13.4367C14.93 13.4367 14.93 13.4367 14.92 13.4367L11.39 13.4488C11.38 13.4488 11.38 13.4488 11.37 13.4488C9.08 13.4488 7.03 11.6967 6.28 9.07467C6.16 8.70008 5.87 8.45841 5.55 8.45841C5.47 8.45841 5.38 8.48258 5.3 8.50675C4.9 8.67591 4.69 9.20758 4.83 9.69092Z" fill="#292D32"/>
</svg>
