<svg width="24" height="29" viewBox="0 0 24 29" fill="none" xmlns="http://www.w3.org/2000/svg">
<path d="M16.19 2.41675H7.81C4.17 2.41675 2 5.03883 2 9.43716V19.5509C2 23.9613 4.17 26.5834 7.81 26.5834H16.18C19.82 26.5834 21.99 23.9613 21.99 19.563V9.43716C22 5.03883 19.83 2.41675 16.19 2.41675ZM16.41 11.878C15.8 13.9805 14.16 15.3942 12.32 15.3942C12.31 15.3942 12.31 15.3942 12.3 15.3942L10.24 15.3822C10.24 15.3822 10.24 15.3822 10.23 15.3822C9.47 15.3822 8.81 15.9984 8.61 16.8805C9.5 17.2188 10.15 18.2217 10.15 19.4059C10.15 20.868 9.16 22.0642 7.95 22.0642C6.74 22.0642 5.75 20.868 5.75 19.4059C5.75 18.3305 6.29 17.4001 7.05 16.9892V11.7209C6.29 11.3584 5.75 10.4642 5.75 9.42508C5.75 8.05966 6.67 6.948 7.8 6.948C8.93 6.948 9.85 8.05966 9.85 9.42508C9.85 10.4763 9.31 11.3584 8.55 11.7209V14.1617C9.04 13.7872 9.62 13.5697 10.23 13.5697H10.24L12.3 13.5817C13.48 13.6301 14.53 12.7117 14.95 11.3826C14.46 10.9234 14.14 10.2226 14.14 9.42508C14.14 8.05966 15.06 6.948 16.19 6.948C17.32 6.948 18.24 8.05966 18.24 9.42508C18.25 10.7059 17.44 11.7451 16.41 11.878Z" fill="#292D32"/>
</svg>
