<svg width="24" height="29" viewBox="0 0 24 29" fill="none" xmlns="http://www.w3.org/2000/svg">
<path d="M16.19 2.41675H7.81C4.17 2.41675 2 5.03883 2 9.43716V19.5509C2 23.9613 4.17 26.5834 7.81 26.5834H16.18C19.82 26.5834 21.99 23.9613 21.99 19.563V9.43716C22 5.03883 19.83 2.41675 16.19 2.41675ZM16.2 22.0522C15.07 22.0522 14.15 20.9405 14.15 19.5751C14.15 18.7776 14.47 18.0767 14.96 17.6176C14.54 16.2884 13.49 15.3701 12.31 15.4184L10.25 15.4305H10.24C9.63 15.4305 9.05 15.213 8.56 14.8384V17.2792C9.32 17.6417 9.86 18.5359 9.86 19.5751C9.86 20.9405 8.94 22.0522 7.81 22.0522C6.68 22.0522 5.76 20.9405 5.76 19.5751C5.76 18.5238 6.3 17.6417 7.06 17.2792V12.023C6.3 11.6001 5.76 10.6817 5.76 9.60633C5.76 8.14425 6.75 6.948 7.96 6.948C9.17 6.948 10.16 8.14425 10.16 9.60633C10.16 10.7905 9.51 11.7813 8.62 12.1317C8.82 13.0138 9.48 13.6301 10.24 13.6301C10.24 13.6301 10.24 13.6301 10.25 13.6301L12.31 13.618C12.32 13.618 12.32 13.618 12.33 13.618C14.17 13.618 15.82 15.0317 16.42 17.1342C17.45 17.2672 18.26 18.3063 18.26 19.5872C18.25 20.9405 17.33 22.0522 16.2 22.0522Z" fill="#292D32"/>
</svg>
