<svg width="24" height="29" viewBox="0 0 24 29" fill="none" xmlns="http://www.w3.org/2000/svg">
<path d="M5.25 10.2709C7.04493 10.2709 8.5 8.5127 8.5 6.34383C8.5 4.17496 7.04493 2.41675 5.25 2.41675C3.45507 2.41675 2 4.17496 2 6.34383C2 8.5127 3.45507 10.2709 5.25 10.2709Z" fill="#292D32"/>
<path d="M5 26.5833C6.65685 26.5833 8 24.9603 8 22.9583C8 20.9562 6.65685 19.3333 5 19.3333C3.34315 19.3333 2 20.9562 2 22.9583C2 24.9603 3.34315 26.5833 5 26.5833Z" fill="#292D32"/>
<path d="M19 26.5833C20.6569 26.5833 22 24.9603 22 22.9583C22 20.9562 20.6569 19.3333 19 19.3333C17.3431 19.3333 16 20.9562 16 22.9583C16 24.9603 17.3431 26.5833 19 26.5833Z" fill="#292D32"/>
<path d="M19.17 19.3091C18.2 15.9499 15.58 13.6903 12.63 13.6903C12.62 13.6903 12.61 13.6903 12.6 13.6903L9.07 13.7024C7.55 13.7266 6.19 12.482 5.78 10.6937V8.47034C5.78 7.96284 5.44 7.552 5.01 7.552C4.58 7.552 4.25 7.96284 4.25 8.47034V22.0278C4.25 22.5353 4.59 22.9462 5.01 22.9462C5.43 22.9462 5.78 22.5353 5.78 22.0278V14.0287C6.66 14.9712 7.81 15.5512 9.06 15.5512C9.07 15.5512 9.07 15.5512 9.08 15.5512L12.61 15.5391C12.62 15.5391 12.62 15.5391 12.63 15.5391C14.92 15.5391 16.97 17.2912 17.72 19.9133C17.84 20.2999 18.13 20.5416 18.45 20.5416C18.53 20.5416 18.62 20.5295 18.7 20.4932C19.1 20.3241 19.31 19.7924 19.17 19.3091Z" fill="#292D32"/>
</svg>
