<svg width="34" height="34" viewBox="0 0 34 34" fill="none" xmlns="http://www.w3.org/2000/svg">
<path d="M16.3227 13.9044C16.3224 13.2798 16.1835 12.6631 15.9162 12.0987C15.6489 11.5342 15.2599 11.036 14.777 10.6399C14.4328 11.9821 13.9354 13.2803 13.2947 14.5089H16.3228V13.9044H16.3227ZM13.6948 9.99059C13.1862 9.78065 12.6412 9.67261 12.091 9.67261H11.958L11.501 11.5007L12.0517 14.252C12.7871 12.9112 13.3397 11.478 13.6948 9.99059Z" fill="#F3B33E"/>
<path d="M9.6722 8.46354C12.0093 8.46354 13.904 6.56891 13.904 4.23177C13.904 1.89463 12.0093 0 9.6722 0C7.33506 0 5.44043 1.89463 5.44043 4.23177C5.44043 6.56891 7.33506 8.46354 9.6722 8.46354Z" fill="#F3B33E"/>
<path d="M10.7117 9.67264H8.63335L8.93566 10.8817H10.4095L10.7117 9.67264ZM10.8696 14.509L10.3859 12.0908H8.9592L8.47559 14.509H10.8696ZM24.1815 10.8817H26.5996V12.0908H24.1815V10.8817ZM31.436 0H19.3452C19.1848 0 19.031 0.0636933 18.9177 0.177068C18.8043 0.290443 18.7406 0.444212 18.7406 0.604548V9.06809C18.7406 9.22843 18.8043 9.38219 18.9177 9.49557C19.031 9.60894 19.1848 9.67264 19.3452 9.67264H31.4359C31.5963 9.67264 31.75 9.60894 31.8634 9.49557C31.9768 9.38219 32.0405 9.22843 32.0405 9.06809V0.604548C32.0405 0.525161 32.0248 0.446549 31.9945 0.373203C31.9641 0.299856 31.9196 0.23321 31.8634 0.177072C31.8073 0.120934 31.7407 0.076402 31.6673 0.0460198C31.594 0.0156376 31.5154 -4.7494e-10 31.436 0ZM25.3906 7.25444C24.055 7.25444 22.9724 6.17177 22.9724 4.83632C22.9724 3.50086 24.055 2.41813 25.3906 2.41813C26.7261 2.41813 27.8087 3.5008 27.8087 4.83625C27.8087 5.15381 27.7462 5.46826 27.6246 5.76165C27.5031 6.05504 27.325 6.32162 27.1005 6.54617C26.8759 6.77072 26.6093 6.94884 26.316 7.07037C26.0226 7.1919 25.7081 7.25444 25.3906 7.25444Z" fill="#F3B33E"/>
<path d="M25.3907 6.04539C26.0585 6.04539 26.5998 5.50406 26.5998 4.83629C26.5998 4.16853 26.0585 3.6272 25.3907 3.6272C24.723 3.6272 24.1816 4.16853 24.1816 4.83629C24.1816 5.50406 24.723 6.04539 25.3907 6.04539Z" fill="#F3B33E"/>
<path d="M22.9722 13.2998C22.8119 13.2998 22.6581 13.3635 22.5448 13.4769C22.4314 13.5902 22.3677 13.744 22.3677 13.9044V14.5089H28.4131V13.9044C28.4131 13.825 28.3975 13.7463 28.3671 13.673C28.3367 13.5997 28.2922 13.533 28.236 13.4769C28.1799 13.4207 28.1132 13.3762 28.0399 13.3458C27.9666 13.3154 27.8879 13.2998 27.8085 13.2998H22.9722ZM29.0176 21.7633C28.8572 21.7633 28.7035 21.6997 28.5901 21.5863C28.4767 21.4729 28.413 21.3191 28.413 21.1588V19.3452C28.413 19.1848 28.3493 19.031 28.236 18.9177C28.1226 18.8043 27.9688 18.7406 27.8085 18.7406H6.04515C5.88481 18.7406 5.73104 18.8043 5.61767 18.9177C5.50429 19.031 5.4406 19.1848 5.4406 19.3452V21.1588C5.4406 21.3191 5.3769 21.4729 5.26353 21.5863C5.15015 21.6997 4.99639 21.7633 4.83605 21.7633C4.16829 21.7633 3.62695 22.3047 3.62695 22.9724C3.62695 23.6402 4.16829 24.1815 4.83605 24.1815C4.99639 24.1815 5.15015 24.2452 5.26353 24.3586C5.3769 24.472 5.4406 24.6258 5.4406 24.7861V26.5997C5.4406 26.7601 5.50429 26.9138 5.61767 27.0272C5.73104 27.1406 5.88481 27.2043 6.04515 27.2043H27.8085C27.9689 27.2043 28.1227 27.1406 28.236 27.0272C28.3494 26.9138 28.4131 26.7601 28.4131 26.5997V24.7861C28.4131 24.6258 28.4768 24.472 28.5902 24.3586C28.7035 24.2452 28.8573 24.1815 29.0176 24.1815C29.6854 24.1815 30.2267 23.6402 30.2267 22.9724C30.2267 22.3047 29.6853 21.7633 29.0176 21.7633ZM16.3223 25.3906C16.3223 25.5509 16.2586 25.7047 16.1452 25.8181C16.0318 25.9314 15.8781 25.9951 15.7177 25.9951C15.5574 25.9951 15.4036 25.9314 15.2902 25.8181C15.1769 25.7047 15.1132 25.5509 15.1132 25.3906V23.5769H13.9041V25.3906C13.9024 25.5498 13.838 25.7019 13.7248 25.814C13.6116 25.926 13.4588 25.9888 13.2996 25.9888C13.1403 25.9888 12.9875 25.926 12.8743 25.814C12.7611 25.7019 12.6967 25.5498 12.695 25.3906V20.5542C12.695 20.3939 12.7587 20.2401 12.8721 20.1268C12.9855 20.0134 13.1393 19.9497 13.2996 19.9497C13.4599 19.9497 13.6137 20.0134 13.7271 20.1268C13.8404 20.2401 13.9041 20.3939 13.9041 20.5542V22.3679H15.1132V20.5542C15.1132 20.3939 15.1769 20.2401 15.2903 20.1268C15.4037 20.0134 15.5574 19.9497 15.7178 19.9497C15.8781 19.9497 16.0319 20.0134 16.1453 20.1268C16.2586 20.2401 16.3223 20.3939 16.3223 20.5542V25.3906H16.3223ZM21.1586 24.1815V25.3906C21.1586 25.5509 21.0949 25.7047 20.9815 25.8181C20.8681 25.9314 20.7144 25.9951 20.554 25.9951C20.3937 25.9951 20.2399 25.9314 20.1266 25.8181C20.0132 25.7047 19.9495 25.5509 19.9495 25.3906V24.1815C19.9495 24.0211 19.8858 23.8674 19.7724 23.754C19.659 23.6406 19.5053 23.5769 19.3449 23.5769H18.7404V25.3906C18.7404 25.5509 18.6767 25.7047 18.5633 25.8181C18.45 25.9314 18.2962 25.9951 18.1358 25.9951C17.9755 25.9951 17.8217 25.9314 17.7084 25.8181C17.595 25.7047 17.5313 25.5509 17.5313 25.3906V20.5542C17.5313 20.3939 17.595 20.2401 17.7084 20.1268C17.8217 20.0134 17.9755 19.9497 18.1358 19.9497H19.3449C19.6957 19.9482 20.0393 20.0488 20.3338 20.2394C20.6283 20.4299 20.8609 20.7021 21.0033 21.0227C21.1456 21.3433 21.1915 21.6984 21.1353 22.0446C21.0792 22.3908 20.9234 22.7132 20.687 22.9724C20.9889 23.3029 21.157 23.7339 21.1586 24.1815ZM33.8539 31.436H31.4358V33.2496C31.4358 33.329 31.4514 33.4076 31.4818 33.481C31.5122 33.5543 31.5567 33.621 31.6128 33.6771C31.669 33.7332 31.7356 33.7778 31.809 33.8082C31.8823 33.8385 31.9609 33.8542 32.0403 33.8542H33.2494C33.4098 33.8542 33.5635 33.7905 33.6769 33.6771C33.7903 33.5637 33.854 33.41 33.854 33.2496L33.8539 31.436Z" fill="#F3B33E"/>
<path d="M19.3448 21.1589H18.7402V22.368H19.3448C19.5051 22.368 19.6589 22.3043 19.7723 22.191C19.8856 22.0776 19.9493 21.9238 19.9493 21.7635C19.9493 21.6031 19.8856 21.4494 19.7723 21.336C19.6589 21.2226 19.5051 21.1589 19.3448 21.1589Z" fill="#F3B33E"/>
<path d="M33.8542 16.3225C33.8542 16.1622 33.7905 16.0084 33.6771 15.895C33.5637 15.7817 33.41 15.718 33.2496 15.718H0.604548C0.444212 15.718 0.290443 15.7817 0.177068 15.895C0.0636933 16.0084 3.61708e-09 16.1622 3.61708e-09 16.3225L3.61708e-09 30.2269H33.8542V16.3225ZM29.6224 25.3144V26.5997C29.6224 27.6013 28.8104 28.4133 27.8088 28.4133H6.04541C5.04374 28.4133 4.23177 27.6013 4.23177 26.5997V25.3144C3.16292 25.0396 2.41575 24.076 2.41575 22.9725C2.41575 21.8689 3.16292 20.9053 4.23177 20.6305V19.3452C4.23177 18.3436 5.04374 17.5316 6.04541 17.5316H27.8088C28.8104 17.5316 29.6225 18.3436 29.6225 19.3452V20.6305C30.6913 20.9053 31.4385 21.8689 31.4385 22.9725C31.4385 24.076 30.6912 25.0396 29.6224 25.3144ZM3.61708e-09 33.2496C-8.68126e-06 33.329 0.0156225 33.4076 0.0460008 33.4809C0.0763791 33.5543 0.120909 33.6209 0.177049 33.6771C0.233188 33.7332 0.299836 33.7778 0.373187 33.8081C0.446538 33.8385 0.525155 33.8541 0.604548 33.8541H1.81364C1.97398 33.8541 2.12775 33.7904 2.24112 33.6771C2.3545 33.5637 2.41819 33.4099 2.41819 33.2496V31.4359H3.61708e-09V33.2496ZM3.02267 13.9044V14.5089H6.05084C5.41006 13.2803 4.91269 11.9821 4.56853 10.6399C4.08563 11.036 3.69653 11.5342 3.42923 12.0986C3.16193 12.6631 3.02308 13.2798 3.02267 13.9044ZM7.84451 11.5007L7.38748 9.67261H7.25451C6.70424 9.67261 6.15932 9.78065 5.65067 9.99059C6.00585 11.478 6.55846 12.9112 7.29379 14.252L7.84451 11.5007Z" fill="#F3B33E"/>
</svg>
