<svg width="23" height="23" viewBox="0 0 23 23" fill="none" xmlns="http://www.w3.org/2000/svg">
<path d="M18.7915 0.041748H4.20817C3.95856 0.044622 3.71829 0.137036 3.53109 0.302165C4.27394 0.56352 4.92752 1.03004 5.41608 1.64765C5.90464 2.26526 6.20817 3.00868 6.2915 3.79175C6.30743 3.93018 6.30743 4.06998 6.2915 4.20841V21.9167C6.29101 22.116 6.34767 22.3112 6.45475 22.4792C6.56184 22.6472 6.71486 22.781 6.89567 22.8647C7.07691 22.9481 7.27829 22.9777 7.47588 22.95C7.67347 22.9223 7.85894 22.8385 8.01025 22.7084L10.979 20.1667L13.9478 22.7084C14.1364 22.8698 14.3766 22.9585 14.6248 22.9585C14.8731 22.9585 15.1132 22.8698 15.3019 22.7084L18.2707 20.1667L21.2394 22.7084C21.4281 22.8698 21.6682 22.9584 21.9165 22.9584C22.0672 22.9573 22.2161 22.9254 22.354 22.8647C22.5348 22.781 22.6878 22.6472 22.7949 22.4792C22.902 22.3112 22.9587 22.116 22.9582 21.9167V4.20841C22.9582 3.10335 22.5192 2.04354 21.7378 1.26214C20.9564 0.480735 19.8966 0.041748 18.7915 0.041748ZM17.7498 14.6251H11.4998C11.2236 14.6251 10.9586 14.5153 10.7633 14.32C10.5679 14.1246 10.4582 13.8597 10.4582 13.5834C10.4582 13.3071 10.5679 13.0422 10.7633 12.8468C10.9586 12.6515 11.2236 12.5417 11.4998 12.5417H17.7498C18.0261 12.5417 18.2911 12.6515 18.4864 12.8468C18.6818 13.0422 18.7915 13.3071 18.7915 13.5834C18.7915 13.8597 18.6818 14.1246 18.4864 14.32C18.2911 14.5153 18.0261 14.6251 17.7498 14.6251ZM17.7498 10.4584H11.4998C11.2236 10.4584 10.9586 10.3487 10.7633 10.1533C10.5679 9.95797 10.4582 9.69302 10.4582 9.41675C10.4582 9.14048 10.5679 8.87553 10.7633 8.68018C10.9586 8.48483 11.2236 8.37508 11.4998 8.37508H17.7498C18.0261 8.37508 18.2911 8.48483 18.4864 8.68018C18.6818 8.87553 18.7915 9.14048 18.7915 9.41675C18.7915 9.69302 18.6818 9.95797 18.4864 10.1533C18.2911 10.3487 18.0261 10.4584 17.7498 10.4584ZM17.7498 6.29175H11.4998C11.2236 6.29175 10.9586 6.182 10.7633 5.98665C10.5679 5.7913 10.4582 5.52635 10.4582 5.25008C10.4582 4.97381 10.5679 4.70886 10.7633 4.51351C10.9586 4.31816 11.2236 4.20841 11.4998 4.20841H17.7498C18.0261 4.20841 18.2911 4.31816 18.4864 4.51351C18.6818 4.70886 18.7915 4.97381 18.7915 5.25008C18.7915 5.52635 18.6818 5.7913 18.4864 5.98665C18.2911 6.182 18.0261 6.29175 17.7498 6.29175ZM4.20817 4.20841V12.5417H1.08317C0.806903 12.5417 0.541951 12.432 0.346601 12.2367C0.151251 12.0413 0.0415039 11.7763 0.0415039 11.5001V3.79175C0.0967573 3.23921 0.369241 2.73126 0.799012 2.37963C1.22878 2.028 1.78064 1.86149 2.33317 1.91675C2.88571 1.972 3.39366 2.24449 3.74529 2.67426C4.09692 3.10403 4.26342 3.65588 4.20817 4.20841Z" fill="#3A98B9"/>
</svg>
