<svg width="23" height="25" viewBox="0 0 23 25" fill="none" xmlns="http://www.w3.org/2000/svg">
<path d="M22.3584 0H0.641764C0.412598 0 0.225098 0.1875 0.225098 0.416667V24.5833C0.225098 24.8125 0.412598 25 0.641764 25H22.3584C22.5876 25 22.7751 24.8125 22.7751 24.5833V0.416667C22.7751 0.1875 22.5876 0 22.3584 0ZM21.9418 19.4875H1.05843V0.833333H21.9418V19.4875Z" fill="#DF4747"/>
<path d="M9.93262 2.1333H2.59928C2.36917 2.1333 2.18262 2.31985 2.18262 2.54997V10.4375C2.18262 10.6676 2.36917 10.8541 2.59928 10.8541H9.93262C10.1627 10.8541 10.3493 10.6676 10.3493 10.4375V2.54997C10.3493 2.31985 10.1627 2.1333 9.93262 2.1333Z" fill="#DF4747"/>
<path d="M12.3828 17.8541H19.7162C19.9453 17.8541 20.1328 17.6666 20.1328 17.4375V2.54997C20.1328 2.3208 19.9453 2.1333 19.7162 2.1333H12.3828C12.1537 2.1333 11.9662 2.3208 11.9662 2.54997V17.4375C11.9662 17.6666 12.1537 17.8541 12.3828 17.8541ZM12.7995 2.96663H19.2995V17.0208H12.7995V2.96663ZM9.93285 12.3333H2.60368C2.37451 12.3333 2.18701 12.5208 2.18701 12.75V14.9791C2.18701 15.2083 2.37451 15.3958 2.60368 15.3958H4.22451V17.0791C4.22451 17.3083 4.41201 17.4958 4.64118 17.4958H7.89118C8.12034 17.4958 8.30784 17.3083 8.30784 17.0791V15.3958H9.93285C10.162 15.3958 10.3495 15.2083 10.3495 14.9791V12.75C10.3495 12.5208 10.162 12.3333 9.93285 12.3333ZM4.22451 14.5625H3.02035V13.1666H4.22451V14.5625ZM9.51618 14.5625H8.30784V13.1666H9.51618V14.5625Z" fill="#DF4747"/>
<path d="M18.0495 4.06665H14.0495C13.8194 4.06665 13.6328 4.2532 13.6328 4.48332V7.99165C13.6328 8.22177 13.8194 8.40832 14.0495 8.40832H18.0495C18.2796 8.40832 18.4661 8.22177 18.4661 7.99165V4.48332C18.4661 4.2532 18.2796 4.06665 18.0495 4.06665Z" fill="#DF4747"/>
<path d="M14.9345 10.1138H14.05C13.9395 10.1138 13.8335 10.1577 13.7553 10.2358C13.6772 10.3139 13.6333 10.4199 13.6333 10.5304C13.6333 10.6409 13.6772 10.7469 13.7553 10.8251C13.8335 10.9032 13.9395 10.9471 14.05 10.9471H14.9345C15.0451 10.9471 15.151 10.9032 15.2292 10.8251C15.3073 10.7469 15.3512 10.6409 15.3512 10.5304C15.3512 10.4199 15.3073 10.3139 15.2292 10.2358C15.151 10.1577 15.0451 10.1138 14.9345 10.1138ZM18.0475 10.1138H17.1629C17.0524 10.1138 16.9464 10.1577 16.8683 10.2358C16.7901 10.3139 16.7462 10.4199 16.7462 10.5304C16.7462 10.6409 16.7901 10.7469 16.8683 10.8251C16.9464 10.9032 17.0524 10.9471 17.1629 10.9471H18.0475C18.158 10.9471 18.264 10.9032 18.3421 10.8251C18.4202 10.7469 18.4641 10.6409 18.4641 10.5304C18.4641 10.4199 18.4202 10.3139 18.3421 10.2358C18.264 10.1577 18.158 10.1138 18.0475 10.1138ZM14.9345 12.6004H14.05C13.9395 12.6004 13.8335 12.6443 13.7553 12.7225C13.6772 12.8006 13.6333 12.9066 13.6333 13.0171C13.6333 13.1276 13.6772 13.2336 13.7553 13.3117C13.8335 13.3899 13.9395 13.4338 14.05 13.4338H14.9345C15.0451 13.4338 15.151 13.3899 15.2292 13.3117C15.3073 13.2336 15.3512 13.1276 15.3512 13.0171C15.3512 12.9066 15.3073 12.8006 15.2292 12.7225C15.151 12.6443 15.0451 12.6004 14.9345 12.6004ZM18.0475 12.6004H17.1629C17.0524 12.6004 16.9464 12.6443 16.8683 12.7225C16.7901 12.8006 16.7462 12.9066 16.7462 13.0171C16.7462 13.1276 16.7901 13.2336 16.8683 13.3117C16.9464 13.3899 17.0524 13.4338 17.1629 13.4338H18.0475C18.158 13.4338 18.264 13.3899 18.3421 13.3117C18.4202 13.2336 18.4641 13.1276 18.4641 13.0171C18.4641 12.9066 18.4202 12.8006 18.3421 12.7225C18.264 12.6443 18.158 12.6004 18.0475 12.6004ZM14.9345 15.0867H14.05C13.9395 15.0867 13.8335 15.1306 13.7553 15.2087C13.6772 15.2869 13.6333 15.3928 13.6333 15.5034C13.6333 15.6139 13.6772 15.7198 13.7553 15.798C13.8335 15.8761 13.9395 15.92 14.05 15.92H14.9345C15.0451 15.92 15.151 15.8761 15.2292 15.798C15.3073 15.7198 15.3512 15.6139 15.3512 15.5034C15.3512 15.3928 15.3073 15.2869 15.2292 15.2087C15.151 15.1306 15.0451 15.0867 14.9345 15.0867ZM18.0475 15.0867H17.1629C17.0524 15.0867 16.9464 15.1306 16.8683 15.2087C16.7901 15.2869 16.7462 15.3928 16.7462 15.5034C16.7462 15.6139 16.7901 15.7198 16.8683 15.798C16.9464 15.8761 17.0524 15.92 17.1629 15.92H18.0475C18.158 15.92 18.264 15.8761 18.3421 15.798C18.4202 15.7198 18.4641 15.6139 18.4641 15.5034C18.4641 15.3928 18.4202 15.2869 18.3421 15.2087C18.264 15.1306 18.158 15.0867 18.0475 15.0867Z" fill="#DF4747"/>
</svg>
