<svg width="24" height="30" viewBox="0 0 24 30" fill="none" xmlns="http://www.w3.org/2000/svg">
<path d="M16 2.4624H8C4 2.4624 2 4.9624 2 9.9624V16.2124C2 22.4624 4 23.7124 8 23.7124H8.5C8.78 23.7124 9.14 23.9374 9.3 24.2124L10.8 26.7124C11.46 27.8124 12.54 27.8124 13.2 26.7124L14.7 24.2124C14.89 23.8999 15.19 23.7124 15.5 23.7124H16C20 23.7124 22 21.2124 22 16.2124V9.9624C22 4.9624 20 2.4624 16 2.4624ZM8.53 15.2124C8.82 15.5749 8.82 16.1749 8.53 16.5374C8.38 16.7249 8.19 16.8124 8 16.8124C7.81 16.8124 7.62 16.7249 7.47 16.5374L5.47 14.0374C5.18 13.6749 5.18 13.0749 5.47 12.7124L7.47 10.2124C7.76 9.8499 8.24 9.8499 8.53 10.2124C8.82 10.5749 8.82 11.1749 8.53 11.5374L7.06 13.3749L8.53 15.2124ZM13.69 10.8249L11.69 16.6624C11.57 17.0124 11.29 17.2249 11 17.2249C10.9 17.2249 10.8 17.1999 10.7 17.1499C10.32 16.9499 10.14 16.3999 10.31 15.9124L12.31 10.0749C12.47 9.5999 12.91 9.3749 13.3 9.5874C13.68 9.7999 13.85 10.3499 13.69 10.8249ZM18.53 14.0374L16.53 16.5374C16.38 16.7249 16.19 16.8124 16 16.8124C15.81 16.8124 15.62 16.7249 15.47 16.5374C15.18 16.1749 15.18 15.5749 15.47 15.2124L16.94 13.3749L15.47 11.5374C15.18 11.1749 15.18 10.5749 15.47 10.2124C15.76 9.8499 16.24 9.8499 16.53 10.2124L18.53 12.7124C18.82 13.0749 18.82 13.6749 18.53 14.0374Z" fill="#292D32"/>
</svg>
