<svg width="24" height="30" viewBox="0 0 24 30" fill="none" xmlns="http://www.w3.org/2000/svg">
<path d="M18 16.25C15.24 16.25 13 19.05 13 22.5C13 25.95 15.24 28.75 18 28.75C20.76 28.75 23 25.95 23 22.5C23 19.05 20.76 16.25 18 16.25ZM17.16 24.0875C17.41 24.4 17.41 24.9125 17.16 25.2375C17.03 25.4 16.87 25.475 16.7 25.475C16.53 25.475 16.37 25.4 16.24 25.2375L14.51 23.075C14.26 22.7625 14.26 22.25 14.51 21.925L16.24 19.7625C16.49 19.45 16.9 19.45 17.16 19.7625C17.41 20.075 17.41 20.5875 17.16 20.9125L15.89 22.5L17.16 24.0875ZM21.48 23.075L19.75 25.2375C19.62 25.4 19.46 25.475 19.29 25.475C19.12 25.475 18.96 25.4 18.83 25.2375C18.58 24.925 18.58 24.4125 18.83 24.0875L20.11 22.5L18.84 20.9125C18.59 20.6 18.59 20.0875 18.84 19.7625C19.09 19.45 19.5 19.45 19.76 19.7625L21.49 21.925C21.73 22.25 21.73 22.75 21.48 23.075Z" fill="#292D32"/>
<path d="M21 8.74999V14.3375C21 14.775 20.66 15.075 20.34 14.925C19.23 14.3875 17.99 14.2125 16.69 14.5375C14.09 15.1875 12.02 17.85 11.59 21.125C11.33 23.125 11.65 25.0125 12.38 26.55C12.58 26.975 12.34 27.5 11.95 27.5H8C4.5 27.5 3 25 3 21.25V8.74999C3 5.42499 4.18 3.08749 6.89 2.59999C7.18 2.54999 7.44 2.83749 7.45 3.21249L7.48 4.47499C7.51 6.47499 8.86 8.12499 10.48 8.12499H13.5C15.15 8.12499 16.5 6.43749 16.5 4.37499V3.21249C16.5 2.83749 16.76 2.53749 17.05 2.58749C19.8 3.04999 21 5.39999 21 8.74999Z" fill="#292D32"/>
<path d="M15 3.75V4.375C15 5.4 14.32 6.25 13.5 6.25H10.47C9.65999 6.25 8.98999 5.4375 8.96999 4.425L8.95999 3.7875C8.93999 3.075 9.38999 2.5 9.95999 2.5H14C14.55 2.5 15 3.0625 15 3.75Z" fill="#292D32"/>
</svg>
