<svg width="34" height="34" viewBox="0 0 34 34" fill="none" xmlns="http://www.w3.org/2000/svg">
<g clip-path="url(#clip0_1_11338)">
<path d="M2.28962 33.5722H31.5644C32.088 33.5716 32.59 33.3633 32.9602 32.9931C33.3304 32.6229 33.5387 32.1209 33.5393 31.5973V13.8307C33.5387 13.0078 33.2115 12.2188 32.6297 11.637C32.0478 11.0551 31.2588 10.728 30.436 10.7274H29.3007L28.5898 2.09568C28.5473 1.60251 28.3219 1.14305 27.958 0.807513C27.5941 0.47198 27.1179 0.284621 26.6229 0.282227H24.0511C23.5563 0.285083 23.0804 0.472421 22.7164 0.807597C22.3524 1.14277 22.1266 1.60168 22.083 2.09455L21.3721 10.7274H20.2436C19.4208 10.7283 18.632 11.0555 18.0502 11.6373C17.4685 12.2191 17.1412 13.0079 17.1403 13.8307V15.6859L13.6759 13.3296C13.448 13.1414 13.1587 13.0438 12.8634 13.0554C12.6876 13.0512 12.5129 13.0828 12.3496 13.1481C12.1864 13.2134 12.0381 13.3111 11.9137 13.4354C11.7894 13.5597 11.6915 13.7079 11.626 13.871C11.5606 14.0342 11.5289 14.209 11.5329 14.3847V15.1532C11.5327 15.2043 11.5186 15.2544 11.4921 15.2981C11.4656 15.3419 11.4278 15.3776 11.3826 15.4014C11.3374 15.4253 11.2866 15.4364 11.2355 15.4337C11.1845 15.4309 11.1352 15.4143 11.0928 15.3857L8.06401 13.3319C7.83571 13.1436 7.54607 13.046 7.25038 13.0577C7.07471 13.0536 6.90005 13.0853 6.73696 13.1507C6.57386 13.2161 6.42571 13.3138 6.30146 13.4381C6.17722 13.5623 6.07944 13.7105 6.01406 13.8736C5.94867 14.0367 5.91703 14.2113 5.92104 14.387V15.1555C5.92095 15.2068 5.90688 15.2571 5.88034 15.301C5.8538 15.3449 5.8158 15.3807 5.77042 15.4046C5.72505 15.4285 5.67401 15.4396 5.62281 15.4366C5.5716 15.4337 5.52216 15.4169 5.47981 15.388L2.45663 13.333C2.22911 13.144 1.93968 13.0459 1.64413 13.0577C1.46846 13.0536 1.2938 13.0853 1.13071 13.1507C0.967611 13.2161 0.819463 13.3138 0.695214 13.4381C0.570965 13.5623 0.473194 13.7105 0.407809 13.8736C0.342423 14.0367 0.31078 14.2113 0.314792 14.387V31.5973C0.315389 32.1209 0.523643 32.6229 0.893865 32.9931C1.26409 33.3633 1.76605 33.5716 2.28962 33.5722ZM7.56861 31.8794V28.1555C7.56861 28.0807 7.59833 28.0089 7.65124 27.956C7.70415 27.9031 7.77591 27.8734 7.85073 27.8734H11.2914C11.3662 27.8737 11.4378 27.9035 11.4906 27.9563C11.5434 28.0092 11.5733 28.0808 11.5736 28.1555V31.8794H7.56861ZM23.0151 31.8794V26.6975C23.0151 26.6227 23.0449 26.5509 23.0978 26.498C23.1507 26.4451 23.2224 26.4154 23.2973 26.4154H27.3767C27.4515 26.4154 27.5233 26.4451 27.5762 26.498C27.6291 26.5509 27.6588 26.6227 27.6588 26.6975V31.8794H23.0151ZM24.0511 1.97493H26.6229C26.6934 1.97548 26.7612 2.00223 26.8132 2.04999C26.8651 2.09774 26.8974 2.1631 26.9039 2.23335L27.0833 4.45757H23.585L23.7678 2.23448C23.774 2.16364 23.8066 2.09769 23.859 2.04965C23.9114 2.0016 23.98 1.97495 24.0511 1.97493ZM23.4473 6.15028H27.2266L27.6035 10.7274H23.0704L23.4473 6.15028ZM18.8274 13.8307C18.8274 13.4566 18.976 13.0978 19.2405 12.8332C19.5051 12.5687 19.8639 12.4201 20.238 12.4201H30.436C30.8101 12.4201 31.1689 12.5687 31.4334 12.8332C31.6979 13.0978 31.8466 13.4566 31.8466 13.8307V31.5973C31.8466 31.6722 31.8168 31.7439 31.7639 31.7968C31.711 31.8497 31.6393 31.8794 31.5644 31.8794H29.3515V26.6975C29.3509 26.1739 29.1427 25.672 28.7724 25.3018C28.4022 24.9315 27.9003 24.7233 27.3767 24.7227H23.2973C22.7737 24.7233 22.2717 24.9315 21.9015 25.3018C21.5313 25.672 21.323 26.1739 21.3224 26.6975V31.8794H18.8274V13.8307ZM2.01314 15.072L4.53302 16.7861C4.82966 16.9866 5.17523 17.1027 5.53276 17.122C5.89029 17.1412 6.24633 17.0629 6.56278 16.8954C6.87923 16.7279 7.1442 16.4775 7.32932 16.1711C7.51444 15.8646 7.61276 15.5135 7.61375 15.1555V15.0731L10.1348 16.7873C10.4314 16.9895 10.7776 17.1069 11.1361 17.1269C11.4946 17.147 11.8517 17.0689 12.1691 16.901C12.4864 16.7332 12.752 16.4819 12.9372 16.1744C13.1224 15.8668 13.2202 15.5145 13.22 15.1555V15.0731L17.1347 17.7352V31.8794H13.2663V28.1555C13.2654 27.632 13.057 27.1302 12.6869 26.7601C12.3167 26.3899 11.8149 26.1816 11.2914 26.1807H7.85073C7.32716 26.1813 6.8252 26.3895 6.45498 26.7597C6.08475 27.13 5.8765 27.6319 5.8759 28.1555V31.8794H2.28962C2.2148 31.8794 2.14304 31.8497 2.09013 31.7968C2.03722 31.7439 2.0075 31.6722 2.0075 31.5973V15.0731L2.01314 15.072Z" fill="#D28591"/>
<path d="M5.19108 23.3211H7.59924C7.82371 23.3211 8.03898 23.232 8.1977 23.0732C8.35643 22.9145 8.44559 22.6992 8.44559 22.4748C8.44559 22.2503 8.35643 22.035 8.1977 21.8763C8.03898 21.7176 7.82371 21.6284 7.59924 21.6284H5.19108C4.96661 21.6284 4.75134 21.7176 4.59262 21.8763C4.4339 22.035 4.34473 22.2503 4.34473 22.4748C4.34473 22.6992 4.4339 22.9145 4.59262 23.0732C4.75134 23.232 4.96661 23.3211 5.19108 23.3211ZM11.5421 23.3211H13.9503C14.1748 23.3211 14.39 23.232 14.5487 23.0732C14.7075 22.9145 14.7966 22.6992 14.7966 22.4748C14.7966 22.2503 14.7075 22.035 14.5487 21.8763C14.39 21.7176 14.1748 21.6284 13.9503 21.6284H11.5421C11.3177 21.6284 11.1024 21.7176 10.9437 21.8763C10.7849 22.035 10.6958 22.2503 10.6958 22.4748C10.6958 22.6992 10.7849 22.9145 10.9437 23.0732C11.1024 23.232 11.3177 23.3211 11.5421 23.3211ZM21.6228 17.3289H29.0515C29.276 17.3289 29.4912 17.2398 29.65 17.081C29.8087 16.9223 29.8979 16.7071 29.8979 16.4826C29.8979 16.2581 29.8087 16.0428 29.65 15.8841C29.4912 15.7254 29.276 15.6362 29.0515 15.6362H21.6228C21.3983 15.6362 21.183 15.7254 21.0243 15.8841C20.8656 16.0428 20.7764 16.2581 20.7764 16.4826C20.7764 16.7071 20.8656 16.9223 21.0243 17.081C21.183 17.2398 21.3983 17.3289 21.6228 17.3289ZM21.6228 21.5065H29.0515C29.276 21.5065 29.4912 21.4174 29.65 21.2587C29.8087 21.0999 29.8979 20.8847 29.8979 20.6602C29.8979 20.4357 29.8087 20.2204 29.65 20.0617C29.4912 19.903 29.276 19.8138 29.0515 19.8138H21.6228C21.3983 19.8138 21.183 19.903 21.0243 20.0617C20.8656 20.2204 20.7764 20.4357 20.7764 20.6602C20.7764 20.8847 20.8656 21.0999 21.0243 21.2587C21.183 21.4174 21.3983 21.5065 21.6228 21.5065Z" fill="#D28591"/>
</g>
<defs>
<clipPath id="clip0_1_11338">
<rect width="33.8542" height="33.8542" fill="white"/>
</clipPath>
</defs>
</svg>
