<svg width="24" height="30" viewBox="0 0 24 30" fill="none" xmlns="http://www.w3.org/2000/svg">
<path d="M19.73 20.1251C19.73 20.0876 19.75 20.0501 19.75 20.0001V8.1251C19.75 6.2251 18.52 4.6876 17 4.6876H13.07L14.48 3.2251C14.8 2.8876 14.84 2.3001 14.58 1.9001C14.31 1.5001 13.84 1.4501 13.52 1.7751L10.52 4.9001C10.35 5.0751 10.25 5.3376 10.25 5.6251C10.25 5.9126 10.35 6.1626 10.52 6.3501L13.52 9.4751C13.66 9.6251 13.83 9.6876 14 9.6876C14.21 9.6876 14.43 9.5751 14.58 9.3501C14.85 8.9501 14.8 8.3626 14.48 8.0251L13.07 6.5626H17C17.69 6.5626 18.25 7.2626 18.25 8.1251V20.0001C18.25 20.0501 18.27 20.0876 18.27 20.1251C16.97 20.5376 16 22.0001 16 23.7501C16 25.8251 17.34 27.5001 19 27.5001C20.66 27.5001 22 25.8251 22 23.7501C22 22.0001 21.03 20.5376 19.73 20.1251Z" fill="#292D32"/>
<path d="M13.48 23.65L10.48 20.525C10.16 20.1875 9.69 20.25 9.42 20.65C9.15 21.05 9.2 21.6375 9.52 21.975L10.93 23.4375H7C6.31 23.4375 5.75 22.7375 5.75 21.875V10C5.75 9.95 5.73 9.9125 5.73 9.875C7.03 9.4625 8 8 8 6.25C8 4.175 6.66 2.5 5 2.5C3.34 2.5 2 4.175 2 6.25C2 8 2.97 9.4625 4.27 9.875C4.27 9.9125 4.25 9.95 4.25 10V21.875C4.25 23.775 5.48 25.3125 7 25.3125H10.93L9.52 26.775C9.2 27.1125 9.16 27.7 9.42 28.1C9.57 28.325 9.78 28.4375 10 28.4375C10.17 28.4375 10.34 28.3625 10.48 28.225L13.48 25.1C13.65 24.925 13.75 24.6625 13.75 24.375C13.75 24.0875 13.65 23.8375 13.48 23.65Z" fill="#292D32"/>
</svg>
