<svg width="24" height="29" viewBox="0 0 24 29" fill="none" xmlns="http://www.w3.org/2000/svg">
<path d="M5.75 19.4663V9.53383C7.04 9.13508 8 7.73341 8 6.04175C8 4.03591 6.66 2.41675 5 2.41675C3.34 2.41675 2 4.03591 2 6.04175C2 7.73341 2.96 9.13508 4.25 9.53383V19.4542C2.96 19.8651 2 21.2667 2 22.9584C2 24.9642 3.34 26.5834 5 26.5834C6.66 26.5834 8 24.9642 8 22.9584C8 21.2667 7.04 19.8651 5.75 19.4663Z" fill="#292D32"/>
<path d="M19.75 19.4662V7.85407C19.75 6.01741 18.52 4.53116 17 4.53116H14.07L15.48 3.11741C15.8 2.79116 15.84 2.22324 15.58 1.83657C15.31 1.44991 14.84 1.40157 14.52 1.71574L11.52 4.73657C11.35 4.90574 11.25 5.15949 11.25 5.43741C11.25 5.71532 11.35 5.95699 11.52 6.13824L14.52 9.15907C14.66 9.30407 14.83 9.36449 15 9.36449C15.21 9.36449 15.43 9.25574 15.58 9.03824C15.85 8.65157 15.8 8.08366 15.48 7.75741L14.07 6.34366H17C17.69 6.34366 18.25 7.02032 18.25 7.85407V19.4662C16.96 19.8649 16 21.2666 16 22.9582C16 24.9641 17.34 26.5832 19 26.5832C20.66 26.5832 22 24.9641 22 22.9582C22 21.2666 21.04 19.8649 19.75 19.4662Z" fill="#292D32"/>
</svg>
