<svg width="26" height="25" viewBox="0 0 26 25" fill="none" xmlns="http://www.w3.org/2000/svg">
<path d="M17.1718 1.89451H15.3426C15.2315 1.89107 15.1245 1.85168 15.0377 1.78224C14.9509 1.71281 14.8889 1.61708 14.8612 1.50944C14.6879 0.608904 13.8844 -0.031196 12.9679 0.00117446C12.0458 -0.0149801 11.2463 0.6355 11.0745 1.54157C11.0457 1.64599 10.9825 1.73763 10.8952 1.80169C10.8078 1.86575 10.7014 1.89847 10.5931 1.89457H8.82812V5.10367H17.1718V1.89451Z" fill="#E97777"/>
<path d="M22.3064 23.5238V5.1357C22.3084 4.40905 21.7209 3.8184 20.9942 3.81643C20.9609 3.81637 20.9276 3.81754 20.8944 3.81993H18.1346V5.45658C18.1346 5.71333 17.9741 6.06633 17.7174 6.06633H8.2506C7.99384 6.06633 7.86553 5.71333 7.86553 5.45658V3.82H5.10569C4.38101 3.7668 3.75036 4.3112 3.69723 5.03594C3.69478 5.06917 3.69361 5.10247 3.69373 5.13576V23.5238C3.6758 24.3212 4.30766 24.9821 5.10501 25H20.8945C21.6918 24.9825 22.324 24.3219 22.3065 23.5245L22.3064 23.5238ZM10.4007 19.2878L7.89759 21.6304C7.85801 21.6778 7.80908 21.7165 7.75387 21.7441C7.69866 21.7717 7.63835 21.7876 7.57671 21.7909C7.4426 21.7856 7.31589 21.728 7.22371 21.6304L5.90801 20.2826C5.82395 20.1885 5.78022 20.0652 5.78621 19.9391C5.79221 19.8131 5.84746 19.6944 5.94007 19.6087C6.03004 19.5205 6.15102 19.4711 6.27701 19.4711C6.40301 19.4711 6.52398 19.5205 6.61395 19.6087L7.57665 20.6356L9.75886 18.5818C9.85479 18.5156 9.97146 18.4865 10.0872 18.4998C10.203 18.5131 10.31 18.568 10.3884 18.6542C10.4668 18.7404 10.5112 18.8522 10.5135 18.9687C10.5158 19.0852 10.4757 19.1986 10.4007 19.2878ZM10.4007 14.1532L7.89759 16.4959C7.85801 16.5432 7.80908 16.5819 7.75387 16.6095C7.69866 16.6371 7.63835 16.6531 7.57671 16.6563C7.4426 16.651 7.31589 16.5934 7.22371 16.4959L5.90801 15.1481C5.82395 15.0539 5.78022 14.9306 5.78621 14.8046C5.79221 14.6785 5.84746 14.5599 5.94007 14.4742C6.03004 14.386 6.15102 14.3366 6.27701 14.3366C6.40301 14.3366 6.52398 14.386 6.61395 14.4742L7.57665 15.5011L9.75886 13.4472C9.85479 13.3811 9.97146 13.3519 10.0872 13.3652C10.203 13.3786 10.31 13.4334 10.3884 13.5197C10.4668 13.6059 10.5112 13.7176 10.5135 13.8341C10.5158 13.9507 10.4757 14.064 10.4007 14.1532ZM10.4007 9.01868L7.89759 11.3613C7.85801 11.4087 7.80908 11.4474 7.75387 11.475C7.69866 11.5026 7.63835 11.5185 7.57671 11.5218C7.4426 11.5165 7.31589 11.4589 7.22371 11.3613L5.90801 10.0135C5.82395 9.91939 5.78022 9.79604 5.78621 9.67C5.79221 9.54396 5.84746 9.42532 5.94007 9.33962C6.03004 9.25142 6.15102 9.20201 6.27701 9.20201C6.40301 9.20201 6.52398 9.25142 6.61395 9.33962L7.57665 10.3665L9.75886 8.31267C9.85479 8.2465 9.97146 8.21737 10.0872 8.23069C10.203 8.24401 10.31 8.29887 10.3884 8.3851C10.4668 8.47133 10.5112 8.58307 10.5135 8.69958C10.5158 8.8161 10.4757 8.92947 10.4007 9.01868ZM19.7392 21.1491H12.3582C12.2305 21.1491 12.1081 21.0983 12.0178 21.0081C11.9275 20.9178 11.8768 20.7953 11.8768 20.6677C11.8768 20.54 11.9275 20.4176 12.0178 20.3273C12.1081 20.237 12.2305 20.1863 12.3582 20.1863H19.7391C19.8668 20.1863 19.9892 20.237 20.0795 20.3273C20.1698 20.4175 20.2205 20.54 20.2205 20.6676C20.2205 20.7953 20.1698 20.9178 20.0795 21.008C19.9893 21.0983 19.8668 21.149 19.7392 21.1491ZM19.7392 16.0145H12.3582C12.2305 16.0145 12.1081 15.9638 12.0178 15.8735C11.9275 15.7832 11.8768 15.6608 11.8768 15.5331C11.8768 15.4055 11.9275 15.283 12.0178 15.1927C12.1081 15.1025 12.2305 15.0517 12.3582 15.0517H19.7391C19.8668 15.0517 19.9892 15.1024 20.0795 15.1927C20.1698 15.283 20.2205 15.4054 20.2205 15.5331C20.2205 15.6608 20.1698 15.7832 20.0795 15.8735C19.9893 15.9638 19.8668 16.0145 19.7392 16.0145ZM19.7392 10.8799H12.3582C12.2305 10.8799 12.1081 10.8292 12.0178 10.739C11.9275 10.6487 11.8768 10.5262 11.8768 10.3986C11.8768 10.2709 11.9275 10.1485 12.0178 10.0582C12.1081 9.9679 12.2305 9.91719 12.3582 9.91719H19.7391C19.8668 9.91718 19.9892 9.96789 20.0795 10.0582C20.1698 10.1484 20.2205 10.2709 20.2205 10.3985C20.2205 10.5262 20.1698 10.6487 20.0795 10.7389C19.9893 10.8292 19.8668 10.8799 19.7392 10.8799Z" fill="#E97777"/>
</svg>
