<svg width="33" height="30" viewBox="0 0 33 30" fill="none" xmlns="http://www.w3.org/2000/svg">
<path d="M5.20428 13.1424C14.4693 9.84846 17.8575 5.80739 19.0684 3.60746L17.9621 3.13212C17.6631 3.00364 17.6281 2.58053 17.9258 2.41516L22.1821 0.0506601C22.4112 -0.0766236 22.6982 0.0466928 22.7635 0.300467L23.9779 5.01565C24.0628 5.3454 23.7317 5.61134 23.4326 5.4826L22.1024 4.91105C19.088 8.73465 14.1609 13.0816 5.20428 13.1424ZM25.2619 9.05633H26.4561V24.8781C26.4561 25.0966 26.6343 25.2748 26.8528 25.2748H30.2578C30.4763 25.2748 30.6545 25.0966 30.6545 24.8781V9.05633H31.8487C32.249 9.05633 32.4726 8.59659 32.2256 8.28165L29.3092 4.56325C28.9257 4.07435 28.1849 4.07435 27.8015 4.56325L24.8851 8.28165C24.638 8.59665 24.8617 9.05633 25.2619 9.05633ZM19.408 12.1577C19.1895 12.1577 19.0113 12.3359 19.0113 12.5544V24.8781C19.0113 25.0967 19.1895 25.2749 19.408 25.2749H22.8129C23.0315 25.2749 23.2097 25.0967 23.2097 24.8781V12.5544C23.2097 12.3359 23.0315 12.1577 22.8129 12.1577H19.408ZM11.9633 15.259C11.7447 15.259 11.5666 15.4372 11.5666 15.6557V24.8781C11.5666 25.0967 11.7447 25.2749 11.9633 25.2749H15.3682C15.5867 25.2749 15.7649 25.0967 15.7649 24.8781V15.6557C15.7649 15.4372 15.5867 15.259 15.3682 15.259H11.9633ZM31.8833 27.7031H1.69363V1.88057C1.69363 1.41289 1.31449 1.03375 0.846817 1.03375C0.37914 1.03375 0 1.41289 0 1.88057V28.5498C0 29.0175 0.37914 29.3967 0.846817 29.3967H31.8833C32.351 29.3967 32.7301 29.0175 32.7301 28.5498C32.7301 28.0822 32.351 27.7031 31.8833 27.7031ZM4.5186 25.2748H7.92353C8.14206 25.2748 8.32025 25.0966 8.32025 24.8781V18.757C8.32025 18.5385 8.14206 18.3603 7.92353 18.3603H4.5186C4.30007 18.3603 4.12188 18.5385 4.12188 18.757V24.8781C4.12188 25.0966 4.30007 25.2748 4.5186 25.2748Z" fill="#6CCA9B"/>
</svg>
