<svg width="24" height="29" viewBox="0 0 24 29" fill="none" xmlns="http://www.w3.org/2000/svg">
<path d="M16.19 2.41675H7.81C4.17 2.41675 2 5.03883 2 9.43716V19.5509C2 23.9613 4.17 26.5834 7.81 26.5834H16.18C19.82 26.5834 21.99 23.9613 21.99 19.563V9.43716C22 5.03883 19.83 2.41675 16.19 2.41675ZM10.13 17.5209C10.42 17.8713 10.42 18.4513 10.13 18.8017C9.98 18.983 9.79 19.0676 9.6 19.0676C9.41 19.0676 9.22 18.983 9.07 18.8017L6.58 15.793C5.99 15.0801 5.99 13.9322 6.58 13.2192L9.07 10.2105C9.36 9.86008 9.84 9.86008 10.13 10.2105C10.42 10.5609 10.42 11.1409 10.13 11.4913L7.64 14.5001L10.13 17.5209ZM17.42 15.7809L14.93 18.7897C14.78 18.9709 14.59 19.0555 14.4 19.0555C14.21 19.0555 14.02 18.9709 13.87 18.7897C13.58 18.4392 13.58 17.8592 13.87 17.5088L16.36 14.5001L13.87 11.4792C13.58 11.1288 13.58 10.5488 13.87 10.1984C14.16 9.848 14.64 9.848 14.93 10.1984L17.42 13.2072C18.01 13.9201 18.01 15.0801 17.42 15.7809Z" fill="#292D32"/>
</svg>
