<svg width="34" height="34" viewBox="0 0 34 34" fill="none" xmlns="http://www.w3.org/2000/svg">
<g clip-path="url(#clip0_1_11302)">
<path d="M4.46344 6.04966C4.5693 6.07626 4.66598 6.13103 4.74321 6.20816L13.363 14.8281L14.9228 13.2685L6.30281 4.64858C6.22554 4.57115 6.17071 4.47422 6.14415 4.3681L5.60165 2.20547L2.00525 0.149414L0.244141 1.91047L2.30081 5.50932L4.46344 6.04966Z" fill="#ED75E3"/>
<path d="M12.1288 25.7121L25.8071 12.0336C25.8808 11.9599 25.9722 11.9066 26.0726 11.8787C26.1729 11.8509 26.2788 11.8495 26.3799 11.8746C28.1808 12.3362 30.0937 11.9363 31.5594 10.7927C33.0254 9.64909 33.878 7.89046 33.8682 6.03143C33.8682 5.91821 33.8649 5.80413 33.8575 5.68904L30.6761 8.87007C30.597 8.94926 30.4973 9.00483 30.3883 9.03055C30.2794 9.05628 30.1654 9.05115 30.0592 9.01573L26.4407 7.80943C26.3519 7.77995 26.2711 7.73017 26.2049 7.66404C26.1386 7.5979 26.0887 7.51723 26.0591 7.42844L24.8531 3.80991C24.7807 3.59352 24.8372 3.35438 24.9988 3.19285L28.1801 0.0115981C26.2643 -0.107592 24.407 0.6973 23.1834 2.17609C21.9599 3.65519 21.5178 5.63037 21.9937 7.48973C22.019 7.59081 22.0178 7.69674 21.99 7.79718C21.9622 7.89762 21.9089 7.98914 21.8352 8.0628L8.15709 21.7404C8.08315 21.8137 7.99165 21.8667 7.89134 21.8945C7.79103 21.9223 7.68527 21.9239 7.58416 21.8992C7.10783 21.7767 6.61816 21.7137 6.12634 21.7116C3.52901 21.6945 1.20826 23.3319 0.353085 25.7849C-0.501616 28.2378 0.298839 30.963 2.34445 32.5639C4.39007 34.1648 7.2277 34.2873 9.40334 32.8679C11.5791 31.4486 12.6108 28.8024 11.9696 26.2849C11.9186 26.0794 11.9789 25.8617 12.1289 25.7121L12.1288 25.7121ZM7.59433 30.1548H4.65884L3.21108 27.7426L4.65884 25.33H7.59433L9.04179 27.7426L7.59433 30.1548ZM9.92181 23.0945L23.1895 9.82661L24.0421 10.6794L10.7744 23.9473L9.92181 23.0945ZM28.9232 33.5395C30.2665 34.0446 31.781 33.717 32.7958 32.7023C33.8107 31.6872 34.1383 30.1725 33.633 28.8295L28.9232 33.5395Z" fill="#ED75E3"/>
<path d="M32.7957 27.5231L26.0221 20.7468C25.275 21.3748 24.1717 21.3271 23.4811 20.6374C22.7905 19.9478 22.7418 18.8448 23.3687 18.0969L22.4095 17.1365L17.2314 22.3147L18.1965 23.2797C18.9437 22.6517 20.0471 22.6993 20.7373 23.3888C21.4278 24.0785 21.4768 25.1817 20.8498 25.9296L27.6176 32.701C27.6915 32.7748 27.7694 32.8433 27.8481 32.9098L33.0046 27.7533C32.9382 27.6744 32.8695 27.5968 32.7957 27.5231ZM29.22 29.9779L23.1893 23.9472L24.0419 23.0944L30.0728 29.1254L29.22 29.9779Z" fill="#ED75E3"/>
</g>
<defs>
<clipPath id="clip0_1_11302">
<rect width="33.8542" height="33.8542" fill="white"/>
</clipPath>
</defs>
</svg>
