<svg width="27" height="27" viewBox="0 0 27 27" fill="none" xmlns="http://www.w3.org/2000/svg">
<path d="M25.0772 17.3403C23.7054 15.9673 21.8017 15.3857 19.357 16.0409L10.6393 7.31439L10.7546 6.87871C11.2567 4.99483 10.7141 2.96984 9.33918 1.59487C7.93922 0.193814 5.94897 -0.320261 4.0667 0.196783C3.9348 0.23299 3.81472 0.303196 3.71847 0.400377C3.62223 0.497558 3.55318 0.618309 3.51825 0.75055C3.48342 0.882766 3.4839 1.0218 3.51963 1.15378C3.55536 1.28575 3.6251 1.40604 3.72187 1.50262L5.82093 3.60169C6.4346 4.21687 6.42861 5.2021 5.82244 5.80988C5.22106 6.41287 4.21021 6.41194 3.61123 5.81139L1.51175 3.71175C1.41501 3.61497 1.29453 3.5453 1.1624 3.50973C1.03026 3.47416 0.891093 3.47393 0.75884 3.50907C0.626637 3.54424 0.505991 3.61352 0.40898 3.70998C0.311968 3.80643 0.241994 3.92667 0.206062 4.05867C-0.303428 5.92026 0.19778 7.92285 1.60447 9.32954C2.97578 10.7018 4.87701 11.2856 7.3232 10.629L16.0415 19.3555C15.3909 21.7995 15.9521 23.6847 17.3425 25.075C18.7442 26.4778 20.7354 26.988 22.6136 26.4727C22.7455 26.4365 22.8656 26.3663 22.9619 26.2691C23.0581 26.172 23.1272 26.0512 23.1622 25.919C23.197 25.7867 23.1966 25.6477 23.1608 25.5157C23.1251 25.3837 23.0553 25.2634 22.9585 25.1668L20.8599 23.0682C20.2463 22.453 20.2523 21.4677 20.8584 20.86C21.4673 20.2542 22.4759 20.2639 23.0696 20.8592L25.1693 22.9583C25.266 23.055 25.3865 23.1246 25.5186 23.1602C25.6508 23.1958 25.7899 23.196 25.9221 23.1609C26.0543 23.1257 26.1749 23.0564 26.2719 22.96C26.3689 22.8635 26.4389 22.7433 26.4749 22.6114C26.9844 20.7501 26.4833 18.747 25.0772 17.3403Z" fill="#687FE5"/>
<path d="M8.36265 13.8863L0.914216 21.3357C-0.304739 22.5546 -0.304739 24.5369 0.914216 25.7558C2.13317 26.9747 4.1154 26.9747 5.3343 25.7558L12.7826 18.3066L8.36265 13.8863ZM4.60025 23.3309C4.295 23.6362 3.80067 23.6362 3.49542 23.3309C3.19023 23.0257 3.19023 22.5313 3.49542 22.2261L8.23456 17.4861C8.53975 17.1809 9.03424 17.1809 9.33938 17.4861C9.64458 17.7913 9.64458 18.2857 9.33938 18.5909L4.60025 23.3309ZM26.4402 1.57588L25.0932 0.228885C24.97 0.105677 24.8091 0.0271791 24.6362 0.005868C24.4633 -0.0154432 24.2882 0.0216548 24.1388 0.111266L19.9952 2.59715C19.5592 2.85869 19.4852 3.46017 19.8446 3.81965L20.1744 4.14937L14.9144 9.38789L17.1248 11.5983L22.3849 6.35981L22.8495 6.8245C23.2089 7.18387 23.8105 7.1099 24.072 6.67391L26.5578 2.53032C26.6474 2.38088 26.6845 2.20578 26.6632 2.03286C26.6419 1.85993 26.5634 1.69909 26.4402 1.57588Z" fill="#687FE5"/>
</svg>
