<svg width="24" height="24" viewBox="0 0 24 24" fill="none" xmlns="http://www.w3.org/2000/svg">
<path d="M11.75 7H11H7C4.24 7 2 9.24 2 12V17C2 19.76 4.24 22 7 22H12C14.76 22 17 19.76 17 17V13V12.25C17 9.35 14.65 7 11.75 7Z" fill="#292D32"/>
<path d="M21.8799 6.33008C22.4045 8.88967 21.1621 11.212 19.159 12.3057C18.8514 12.4737 18.4999 12.2341 18.4999 11.8836V11.7501C18.4999 8.31008 15.6899 5.50008 12.2499 5.50008H12.1164C11.7659 5.50008 11.5263 5.14855 11.6942 4.84094C12.7879 2.83786 15.1103 1.5955 17.6699 2.12008C19.7599 2.55008 21.4499 4.24008 21.8799 6.33008Z" fill="#292D32"/>
</svg>
