<svg width="24" height="29" viewBox="0 0 24 29" fill="none" xmlns="http://www.w3.org/2000/svg">
<path d="M7.81 2.41675C6.32 2.41675 5.08 2.85175 4.13 3.6855C3.71 4.03591 3.34 4.483 3.05 4.9905C2.36 6.13841 2 7.63675 2 9.43716V19.563C2 23.9613 4.17 26.5834 7.81 26.5834H15.28V2.41675H7.81ZM12.12 15.1405L9.56 18.2338C9.41 18.4151 9.22 18.4997 9.03 18.4997C8.84 18.4997 8.65 18.4151 8.5 18.2338C8.21 17.8834 8.21 17.3034 8.5 16.953L10.52 14.5001L8.5 12.0472C8.2 11.6967 8.2 11.1167 8.5 10.7663C8.8 10.4159 9.27 10.4159 9.56 10.7663L12.12 13.8597C12.41 14.2101 12.41 14.7901 12.12 15.1405Z" fill="#292D32"/>
<path d="M16.78 2.45288V26.5591C18.01 26.4625 19.05 26.0395 19.87 25.3145C20.29 24.9641 20.66 24.517 20.95 24.0095C21.64 22.8616 22 21.3633 22 19.5629V9.43705C22 5.28038 20.06 2.70663 16.78 2.45288Z" fill="#292D32"/>
</svg>
