<svg width="24" height="29" viewBox="0 0 24 29" fill="none" xmlns="http://www.w3.org/2000/svg">
<path d="M2 9.43705V19.5629C2 21.3633 2.36 22.8616 3.05 24.0095C3.34 24.517 3.71 24.9641 4.13 25.3145C4.95 26.0395 5.99 26.4625 7.22 26.5591V2.45288C3.94 2.70663 2 5.28038 2 9.43705Z" fill="#292D32"/>
<path d="M20.95 4.9905C20.66 4.483 20.29 4.03591 19.87 3.6855C18.92 2.85175 17.68 2.41675 16.19 2.41675H8.71997V26.5834H16.19C19.83 26.5834 22 23.9613 22 19.563V9.43716C22 7.63675 21.64 6.13841 20.95 4.9905ZM15.5 16.953C15.79 17.3034 15.79 17.8834 15.5 18.2338C15.35 18.4151 15.16 18.4997 14.97 18.4997C14.78 18.4997 14.59 18.4151 14.44 18.2338L11.88 15.1405C11.59 14.7901 11.59 14.2101 11.88 13.8597L14.44 10.7663C14.73 10.4159 15.21 10.4159 15.5 10.7663C15.79 11.1167 15.79 11.6967 15.5 12.0472L13.48 14.5001L15.5 16.953Z" fill="#292D32"/>
</svg>
