<svg width="24" height="29" viewBox="0 0 24 29" fill="none" xmlns="http://www.w3.org/2000/svg">
<path d="M3.05002 24.0096C3.34002 24.5171 3.71002 24.9642 4.13002 25.3146C5.08002 26.1484 6.32002 26.5834 7.81002 26.5834H16.19C19.63 26.5834 21.76 24.2392 21.97 20.2759H2.02002C2.10002 21.7621 2.45002 23.0188 3.05002 24.0096Z" fill="#292D32"/>
<path d="M20.95 4.9905C20.66 4.483 20.29 4.03591 19.87 3.6855C18.92 2.85175 17.68 2.41675 16.19 2.41675H7.81C4.17 2.41675 2 5.03883 2 9.43716V18.4634H22V9.43716C22 7.63675 21.64 6.13841 20.95 4.9905ZM15.09 11.5517L12.53 14.6451C12.24 14.9955 11.76 14.9955 11.47 14.6451L8.91 11.5517C8.76 11.3705 8.69 11.1409 8.69 10.9113C8.69 10.6817 8.76 10.4401 8.91 10.2709C9.2 9.90841 9.68 9.90841 9.97 10.2709L12 12.7117L14.03 10.2588C14.32 9.90841 14.8 9.90841 15.09 10.2588C15.38 10.6092 15.38 11.1892 15.09 11.5517Z" fill="#292D32"/>
</svg>
