<svg width="24" height="29" viewBox="0 0 24 29" fill="none" xmlns="http://www.w3.org/2000/svg">
<path d="M20.95 4.9905C20.66 4.483 20.29 4.03591 19.87 3.6855C18.92 2.85175 17.68 2.41675 16.19 2.41675H7.81003C4.37003 2.41675 2.24003 4.76091 2.03003 8.72425H21.98C21.9 7.238 21.55 5.98133 20.95 4.9905Z" fill="#292D32"/>
<path d="M2 19.5629C2 21.3633 2.36 22.8616 3.05 24.0095C3.34 24.517 3.71 24.9641 4.13 25.3145C5.08 26.1483 6.32 26.5833 7.81 26.5833H16.19C19.83 26.5833 22 23.9612 22 19.5629V10.5366H2V19.5629ZM8.91 17.4483L11.47 14.355C11.76 14.0045 12.24 14.0045 12.53 14.355L15.09 17.4483C15.24 17.6295 15.31 17.8591 15.31 18.0887C15.31 18.3183 15.24 18.5479 15.09 18.7291C14.8 19.0795 14.32 19.0795 14.03 18.7291L12 16.2883L9.97 18.7291C9.68 19.0795 9.2 19.0795 8.91 18.7291C8.62 18.3787 8.62 17.8108 8.91 17.4483Z" fill="#292D32"/>
</svg>
