<svg width="24" height="24" viewBox="0 0 24 24" fill="none" xmlns="http://www.w3.org/2000/svg">
<path d="M10 3.75H11.25V8.5C11.25 8.91 11.59 9.25 12 9.25C12.41 9.25 12.75 8.91 12.75 8.5V3.75H14C14.41 3.75 14.75 3.41 14.75 3C14.75 2.59 14.41 2.25 14 2.25H10C9.59 2.25 9.25 2.59 9.25 3C9.25 3.41 9.59 3.75 10 3.75Z" fill="#292D32"/>
<path d="M14 20.25H12.75V15.5C12.75 15.09 12.41 14.75 12 14.75C11.59 14.75 11.25 15.09 11.25 15.5V20.25H10C9.59 20.25 9.25 20.59 9.25 21C9.25 21.41 9.59 21.75 10 21.75H14C14.41 21.75 14.75 21.41 14.75 21C14.75 20.59 14.41 20.25 14 20.25Z" fill="#292D32"/>
<path d="M2.83 9.87994C2.95 9.94994 3.08 9.97993 3.2 9.97993C3.46 9.97993 3.71 9.84994 3.85 9.59994L4.48 8.51994L8.6 10.8999C8.71 10.9699 8.84 10.9999 8.97 10.9999C9.23 10.9999 9.48 10.8699 9.62 10.6199C9.83 10.2699 9.7 9.80994 9.35 9.59994L5.23 7.21993L5.85 6.13993C6.06 5.77993 5.93 5.31993 5.58 5.11993C5.22 4.90993 4.76 5.02993 4.56 5.38993L2.56 8.84994C2.35 9.21994 2.47 9.66994 2.83 9.87994Z" fill="#292D32"/>
<path d="M21.17 14.1199C20.81 13.9099 20.35 14.0299 20.15 14.3899L19.52 15.4699L15.4 13.0999C15.04 12.8899 14.58 13.0199 14.38 13.3699C14.17 13.7299 14.3 14.1899 14.65 14.3899L18.76 16.7699L18.14 17.8499C17.93 18.2099 18.06 18.6699 18.41 18.8699C18.53 18.9399 18.66 18.9699 18.78 18.9699C19.04 18.9699 19.29 18.8399 19.43 18.5899L21.43 15.1299C21.65 14.7799 21.53 14.3299 21.17 14.1199Z" fill="#292D32"/>
<path d="M18.77 7.21994L14.65 9.59995C14.29 9.80995 14.17 10.2699 14.38 10.6199C14.52 10.8599 14.77 10.9999 15.03 10.9999C15.16 10.9999 15.29 10.9699 15.4 10.8999L19.51 8.51994L20.14 9.59995C20.28 9.83995 20.53 9.97994 20.79 9.97994C20.92 9.97994 21.05 9.94994 21.16 9.87994C21.52 9.66994 21.64 9.20994 21.43 8.85994L19.43 5.39994C19.22 5.03994 18.76 4.91994 18.41 5.12994C18.05 5.33994 17.93 5.79994 18.14 6.14994L18.77 7.21994Z" fill="#292D32"/>
<path d="M5.23 16.7799L9.34 14.3999C9.7 14.1899 9.82 13.7299 9.61 13.3799C9.4 13.0199 8.94 12.8999 8.59 13.1099L4.48 15.4899L3.85 14.4099C3.64 14.0499 3.18 13.9299 2.83 14.1399C2.47 14.3499 2.35 14.8099 2.56 15.1599L4.56 18.6199C4.7 18.8599 4.95 18.9999 5.21 18.9999C5.34 18.9999 5.47 18.9699 5.58 18.8999C5.94 18.6899 6.06 18.2299 5.85 17.8799L5.23 16.7799Z" fill="#292D32"/>
<path d="M15.5 12C15.5 12.64 15.33 13.23 15.03 13.75C14.42 14.8 13.29 15.5 12 15.5C10.71 15.5 9.58 14.8 8.97 13.75C8.67 13.23 8.5 12.64 8.5 12C8.5 11.36 8.67 10.77 8.97 10.25C9.58 9.2 10.71 8.5 12 8.5C13.29 8.5 14.42 9.2 15.03 10.25C15.33 10.77 15.5 11.36 15.5 12Z" fill="#292D32"/>
</svg>
