<svg width="36" height="35" viewBox="0 0 36 35" fill="none" xmlns="http://www.w3.org/2000/svg">
<path opacity="0.1" d="M0.331934 10.2244C0.564702 4.87571 4.96872 0.65918 10.3225 0.65918H25.5461C30.8999 0.65918 35.3039 4.87571 35.5367 10.2244L35.8676 17.8294L35.5367 25.4344C35.3039 30.7831 30.8999 34.9996 25.5461 34.9996H10.3225C4.96873 34.9996 0.564702 30.7831 0.331934 25.4344L0.000976562 17.8294L0.331934 10.2244Z" fill="#687FE5"/>
<path d="M20.605 10.825C20.3117 10.5316 19.8037 10.7319 19.8037 11.1397V13.6366C19.8037 14.6811 20.6908 15.5468 21.7711 15.5468C22.4508 15.5539 23.3951 15.5539 24.2036 15.5539C24.6114 15.5539 24.826 15.0746 24.5398 14.7884C23.5096 13.751 21.6638 11.8838 20.605 10.825Z" fill="#314E8D"/>
<path d="M23.9675 16.5341H21.8999C20.2044 16.5341 18.8236 15.1534 18.8236 13.4578V11.3902C18.8236 10.9967 18.5017 10.6748 18.1082 10.6748H15.0748C12.8713 10.6748 11.0898 12.1057 11.0898 14.6597V20.9984C11.0898 23.5525 12.8713 24.9833 15.0748 24.9833H20.698C22.9015 24.9833 24.6829 23.5525 24.6829 20.9984V17.2496C24.6829 16.8561 24.361 16.5341 23.9675 16.5341ZM17.5287 21.9428H14.667C14.3736 21.9428 14.1304 21.6995 14.1304 21.4062C14.1304 21.1129 14.3736 20.8696 14.667 20.8696H17.5287C17.822 20.8696 18.0652 21.1129 18.0652 21.4062C18.0652 21.6995 17.822 21.9428 17.5287 21.9428ZM18.9595 19.0811H14.667C14.3736 19.0811 14.1304 18.8378 14.1304 18.5445C14.1304 18.2512 14.3736 18.0079 14.667 18.0079H18.9595C19.2528 18.0079 19.4961 18.2512 19.4961 18.5445C19.4961 18.8378 19.2528 19.0811 18.9595 19.0811Z" fill="#314E8D"/>
</svg>
