<svg width="25" height="22" viewBox="0 0 25 22" fill="none" xmlns="http://www.w3.org/2000/svg">
<path d="M12.5 8.49609C14.8461 8.49609 16.748 6.59418 16.748 4.24805C16.748 1.90192 14.8461 0 12.5 0C10.1539 0 8.25195 1.90192 8.25195 4.24805C8.25195 6.59418 10.1539 8.49609 12.5 8.49609Z" fill="#76BA99"/>
<path d="M21.0938 8.49609C22.5769 8.49609 23.7793 7.29373 23.7793 5.81055C23.7793 4.32736 22.5769 3.125 21.0938 3.125C19.6106 3.125 18.4082 4.32736 18.4082 5.81055C18.4082 7.29373 19.6106 8.49609 21.0938 8.49609Z" fill="#76BA99"/>
<path d="M3.90625 8.49609C5.38944 8.49609 6.5918 7.29373 6.5918 5.81055C6.5918 4.32736 5.38944 3.125 3.90625 3.125C2.42306 3.125 1.2207 4.32736 1.2207 5.81055C1.2207 7.29373 2.42306 8.49609 3.90625 8.49609Z" fill="#76BA99"/>
<path d="M6.55225 10.9076C5.49512 10.0415 4.53774 10.1561 3.31543 10.1561C1.4873 10.1561 0 11.6347 0 13.4516V18.7841C0 19.5731 0.644043 20.2147 1.43604 20.2147C4.85527 20.2147 4.44336 20.2766 4.44336 20.0673C4.44336 16.2887 3.9958 13.5176 6.55225 10.9076Z" fill="#76BA99"/>
<path d="M13.6624 10.1758C11.5274 9.9977 9.6717 10.1778 8.07107 11.499C5.3925 13.6445 5.90798 16.5333 5.90798 20.0674C5.90798 21.0024 6.66872 21.7773 7.61794 21.7773C17.9247 21.7773 18.3349 22.1098 18.9461 20.7563C19.1465 20.2986 19.0916 20.4441 19.0916 16.0654C19.0916 12.5876 16.0802 10.1758 13.6624 10.1758ZM21.6843 10.1562C20.4553 10.1562 19.5032 10.0428 18.4475 10.9077C20.9849 13.4983 20.5564 16.0803 20.5564 20.0674C20.5564 20.278 20.2145 20.2148 23.5125 20.2148C24.3328 20.2148 24.9998 19.5503 24.9998 18.7334V13.4517C24.9998 11.6348 23.5125 10.1562 21.6843 10.1562Z" fill="#76BA99"/>
</svg>
