<svg width="26" height="25" viewBox="0 0 26 25" fill="none" xmlns="http://www.w3.org/2000/svg">
<path d="M16.2702 9.07955C24.4038 9.07955 23.8029 9.07784 23.9281 9.08269C23.8524 8.79262 23.7007 8.52802 23.4885 8.31622L21.2586 6.08627C20.7767 5.60435 20.0369 5.46426 19.4175 5.73784C19.0849 5.8848 18.6886 5.81063 18.4313 5.55337C18.1741 5.29617 18.1 4.89985 18.2468 4.56725C18.5204 3.94798 18.3804 3.20808 17.8984 2.72612L15.6685 0.496168C15.0075 -0.164714 13.9321 -0.164763 13.2711 0.496168L10.4812 3.28607L16.2702 9.07955ZM9.44137 4.32597L4.68779 9.07955H14.1904C14.1732 9.0623 13.8096 8.69823 9.44137 4.32597ZM24.4445 16.9472C25.0758 16.7027 25.5 16.0805 25.5 15.3989V12.2453C25.5 11.3106 24.7395 10.5501 23.8048 10.5501H20.3529V24.9997H23.8048C24.7395 24.9997 25.5 24.2392 25.5 23.3045V20.1509C25.5 19.4694 25.0759 18.8472 24.4446 18.6027C24.1054 18.4713 23.8776 18.1387 23.8776 17.7749C23.8776 17.4111 24.1054 17.0785 24.4445 16.9472ZM0.5 12.2453V15.3989C0.5 16.0805 0.924167 16.7027 1.55544 16.9471C1.89456 17.0785 2.12235 17.4111 2.12235 17.7749C2.12235 18.1387 1.89451 18.4713 1.55539 18.6027C0.924118 18.8472 0.5 19.4694 0.5 20.1509V23.3045C0.5 24.2392 1.26049 24.9997 2.1952 24.9997H18.8824V10.5501H2.1952C1.26049 10.5501 0.5 11.3106 0.5 12.2453ZM5.64706 13.9703H16.6765V15.4409H5.64706V13.9703ZM5.64706 16.9115H16.6765V18.3821H5.64706V16.9115ZM5.64706 19.8526H16.6765V21.3232H5.64706V19.8526Z" fill="#8F87F1"/>
</svg>
