<svg width="24" height="24" viewBox="0 0 24 24" fill="none" xmlns="http://www.w3.org/2000/svg">
<path d="M1.23035 21.6817L1.99035 20.9217C1.59035 20.3217 1.36035 19.6017 1.36035 18.8317C1.36035 16.7217 3.07035 15.0117 5.18035 15.0117C7.29035 15.0117 9.00035 16.7117 9.00035 18.8217C9.00035 20.9317 7.29035 22.6417 5.18035 22.6417C4.41035 22.6417 3.69035 22.4117 3.09035 22.0117L2.33035 22.7717C2.17035 22.9217 1.97035 23.0017 1.77035 23.0017C1.57035 23.0017 1.37035 22.9217 1.22035 22.7717C0.920347 22.4717 0.920347 21.9817 1.23035 21.6817Z" fill="#292D32"/>
<path d="M21.5005 12.5H19.0005C17.9005 12.5 17.0005 13.4 17.0005 14.5C17.0005 15.6 17.9005 16.5 19.0005 16.5H21.5005C21.7805 16.5 22.0005 16.28 22.0005 16V13C22.0005 12.72 21.7805 12.5 21.5005 12.5Z" fill="#292D32"/>
<path d="M16.5305 5.39991C16.8305 5.68991 16.5804 6.13991 16.1604 6.13991L7.88045 6.12991C7.40045 6.12991 7.16045 5.54991 7.50045 5.20991L9.25045 3.44991C10.7305 1.97991 13.1205 1.97991 14.6005 3.44991L16.4904 5.35991C16.5004 5.36991 16.5205 5.38991 16.5305 5.39991Z" fill="#292D32"/>
<path d="M21.8705 18.66C21.2605 20.72 19.5005 22 17.1005 22H10.6005C10.2105 22 9.96047 21.57 10.1205 21.21C10.4205 20.51 10.6105 19.72 10.6105 19C10.6105 15.97 8.14047 13.5 5.11047 13.5C4.35047 13.5 3.61047 13.66 2.93047 13.96C2.56047 14.12 2.11047 13.87 2.11047 13.47V12C2.11047 9.28 3.75047 7.38 6.30047 7.06C6.55047 7.02 6.82047 7 7.10047 7H17.1005C17.3605 7 17.6105 7.01 17.8505 7.05C19.8705 7.28 21.3305 8.51 21.8705 10.34C21.9705 10.67 21.7305 11 21.3905 11H19.1005C16.9305 11 15.2105 12.98 15.6805 15.23C16.0105 16.87 17.5305 18 19.2005 18H21.3905C21.7405 18 21.9705 18.34 21.8705 18.66Z" fill="#292D32"/>
</svg>
