<svg width="25" height="23" viewBox="0 0 25 23" fill="none" xmlns="http://www.w3.org/2000/svg">
<path d="M12.2702 5.79262C11.6979 5.80336 11.2145 6.29067 11.2247 6.84633C11.235 7.42299 11.7091 7.87367 12.2975 7.86684C12.8878 7.85951 13.3351 7.40395 13.3292 6.81557C13.3244 6.23793 12.8522 5.78188 12.2702 5.79262ZM19.6144 12.4445C19.1608 12.4415 18.7755 12.8126 18.757 13.2711C18.7374 13.7614 19.1183 14.1637 19.6032 14.1647C20.0724 14.1662 20.443 13.8117 20.4601 13.3449C20.4782 12.8537 20.0973 12.4479 19.6144 12.4445ZM15.0963 13.3434C15.1149 12.8546 14.7218 12.4445 14.2321 12.4425C13.7472 12.4406 13.3414 12.8561 13.3585 13.3375C13.3742 13.798 13.7619 14.1701 14.2257 14.1706C14.6891 14.171 15.0783 13.8092 15.0963 13.3434ZM20.4596 21.3712C19.7453 21.2965 18.9943 21.7086 18.2467 21.7853C15.9699 22.0182 13.9303 21.3834 12.2487 19.8283C9.04994 16.8698 9.50697 12.3331 13.2077 9.90883C16.4967 7.75405 21.3204 8.47231 23.6393 11.4621C25.6632 14.0709 25.4249 17.5343 22.9547 19.7262C21.8019 20.7492 22.2853 21.0753 22.5846 22.2638C21.921 21.9684 21.1847 21.4469 20.4596 21.3712ZM5.67299 5.79311C5.08949 5.77602 4.60902 6.22182 4.59242 6.79701C4.57484 7.38002 5.02064 7.84731 5.60854 7.86196C6.19154 7.87661 6.68031 7.43032 6.70131 6.86244C6.72328 6.29653 6.23012 5.80922 5.67299 5.79311ZM9.19887 16.2272C8.29262 16.1149 7.46693 15.9914 6.63637 15.9215C6.34975 15.8971 6.00941 15.9313 5.76674 16.0685C4.96059 16.5236 4.18764 17.0372 3.27162 17.61C3.43959 16.8493 3.54848 16.1837 3.74086 15.5436C3.88246 15.0729 3.81703 14.8107 3.38344 14.504C-2.23717 10.5363 -0.464218 3.23696 5.82289 1.18324C10.7218 -0.416853 16.8693 2.39809 17.3746 7.80629C12.6525 8.05287 8.77553 11.2277 9.19887 16.2272Z" fill="#3CAF41"/>
</svg>
